<svg xmlns="http://www.w3.org/2000/svg" viewBox="0 0 300 300" class="iconAboveSlogan"><path d="M53.32 171.649q-.513 0-.82-.308-.308-.308-.308-.666 0-.36.359-1.026.359-.615.359-1.23 0-1.64-1.692-2.41-1.692-.717-3.486-.717-5.33 0-11.072 3.588-5.793 3.589-6.818 8.612.359 3.025 2.973 5.64 2.614 2.614 6.1 4.51 3.435 1.897 6.818 3.845 3.332 1.948 5.639 4.562 2.307 2.666 2.307 5.434 0 2.768-2 5.383-1.999 2.614-3.998 4.408-1.948 1.794-1.948 1.897 0 .102.205.102 4.357 0 11.995-4.767l.718-.513q.461-.307.718-.307.256 0 .564.461.256.41.256.923 0 .512-.923.974-4.152 3.947-15.532 7.535-11.38 3.589-20.556 3.589-12.56 0-12.56-7.28 0-1.076 2.154-3.126 3.28-2.974 3.998-2.974.718 0 3.69 1.794 2.923 1.795 7.383 3.589t8.817 1.794q4.408 0 6.715-2.768 2.358-2.717 2.358-5.588 0-2.87-2.46-5.177-2.461-2.256-5.947-4.05-3.434-1.743-6.972-3.588-3.537-1.897-5.946-4.563-2.46-2.614-2.46-5.792 0-5.075 5.69-10.714 5.638-5.587 12.969-9.022 7.33-3.435 12.508-3.435 6.459 0 6.459 4.306 0 2.564-2.358 4.82-2.307 2.255-3.896 2.255zm22.248 34.807l-.308 2.05q0 1.282 1.128 2.666t2.614 1.384q1.18 0 1.897-.462 1.538-1.076 1.948-1.486.41-.41 1.281-.41.923 0 .923.666 0 .718-3.383 4.511-1.077 1.23-3.178 2.563-2.051 1.384-3.691 1.384-1.59 0-2.41-.564-.82-.512-1.179-1.64-.461-1.59-.461-3.896 0-.307-.359-.307t-1.64 1.435q-3.999 4.203-6.51 4.203-2.461 0-3.794-1.332-1.333-1.282-1.333-3.281 0-3.537 1.897-6.716 1.845-3.178 4.408-5.126 5.742-4.255 8.92-4.255 4.716.154 4.716 3.384 0 1.179-.974 2.255-1.025 1.128-1.896 1.128-.82 0-2.359-1.487-1.486-1.537-3.28-1.537-1.794 0-2.974 1.486-1.127 1.487-1.127 3.742 0 3.742 3.947 3.742 1.589 0 2.614-.768 1.025-.82 1.487-1.743 1.23-2.41 2.204-2.41.872 0 .872.82zm7.945 3.024q0-1.128 2.256-3.742 2.204-2.615 3.64-2.615 1.383 0 2.05 1.077.666 1.076.82 2.358.154 1.282.82 2.358.718 1.077 2.05 1.077 1.282 0 2.359-1.18 1.025-1.178 1.691-2.665.616-1.487 1.692-2.666 1.077-1.179 2.153-1.179 1.025 0 1.435.872 4.46 9.534 9.074 9.534.717 0 1.281-.205t.872-.205q.82 0 .82 1.333 0 2.46-2.512 4.409-2.563 1.948-5.229 1.948-2.665 0-4.46-1.743-1.845-1.743-2.511-3.537-.718-1.846-1.026-3.589-.307-1.691-.666-1.691-.564 0-2.255 2.255-1.692 2.256-3.794 4.563-2.153 2.306-3.793 2.306-1.743-.256-2.717-1.691-1.025-1.487-1.282-3.076-.666-4.306-2.768-4.306zm31.885 0q0-1.128 2.204-3.742 2.256-2.615 3.64-2.615 1.384 0 2.102 1.077.666 1.076.82 2.358.154 1.282.82 2.358.667 1.077 2 1.077 1.332 0 2.357-1.18 1.077-1.178 1.692-2.665.666-1.487 1.743-2.666 1.076-1.179 2.102-1.179 1.025 0 1.486.872 4.46 9.534 9.022 9.534.718 0 1.282-.205.615-.205.871-.205.872 0 .872 1.333 0 2.46-2.563 4.409-2.512 1.948-5.178 1.948-2.665 0-4.51-1.743-1.795-1.743-2.513-3.537-.666-1.846-.974-3.589-.358-1.691-.717-1.691-.564 0-2.256 2.255-1.691 2.256-3.793 4.563-2.102 2.306-3.742 2.306-1.743-.256-2.768-1.691-.974-1.487-1.282-3.076-.615-4.306-2.717-4.306zm47.571 27.733q1.743 0 1.743-14.251 0-2.973-.102-4.409-4.511 6.1-4.511 10.97 0 2.769.717 5.23.667 2.46 2.153 2.46zm-11.329-37.268l-.307 2.87q0 3.077 2.05 5.178 2.05 2.153 5.024 2.205 1.794-.052 3.332-1.026 1.538-.974 2.153-1.845l.615-.923q.051-2.46.718-4.1.974-2.769 2.358-2.769h.205q.769.256.769 2.256 0 .871-1.64 3.383l-.564.923q0 5.536.05 8.202 4.204-3.948 6.204-6.46.922-.717 1.486-.717.513 0 .513.513 0 .563-.923 1.332-2.153 1.743-7.177 7.28l.205 10.97q0 8.92-1.23 13.482-1.23 4.613-4.562 4.613-2.768 0-4.563-2.82-1.794-2.767-1.794-6.1 0-6.305 2.666-10.918 2.614-4.665 7.382-9.381-.103-5.178-.103-5.69 0-.462-.41-.462t-.923.718q-2.512 2.614-3.64 3.69-3.075 3.025-6.202 3.025t-4.972-2.05q-1.795-2.102-1.795-5.947 0-3.844 1.436-7.022 1.486-3.179 2.768-3.179.871 0 .871.77zm69.665 12.61l-1.281.257q-3.999 0-6.46-5.895-2.511-5.844-2.511-14.917 0-9.074 2-19.172 0-.564-.718-.564-1.795.102-2.256 1.076-.513.974-1.692 4.921-1.127 3.948-2.46 11.124-1.333 7.177-1.333 14.507t1.845 11.637q1.846 4.306 6.357 4.306 3.024 0 6.203-2 3.178-1.947 3.178-4.203 0-1.076-.872-1.076zm-31.423-42.444q7.894-4.255 21.017-7.843 13.175-3.589 23.068-4.101 1.59.205 1.59 1.64 0 1.384-.82 3.588-.872 2.256-2.154 2.307-6.715.462-22.145 4.46-15.379 3.998-21.53 8.458-.462.205-.82.205-.615 0-.615-1.179 0-1.23.973-4.254.923-3.025 1.436-3.281zm41.06 37.318q1.231-.46 2.461-2.768 1.282-2.358 1.282-3.844 0-1.538-1.18-1.59-1.69 0-2.409 1.538-.717 1.538-.717 3.384 0 1.845.564 3.28zm6.152 4.665q2.05 0 3.383-.922 1.282-.872 2.512-2.307 1.18-1.436 1.846-1.436.666 0 .666.616 0 .461-.256 1.025-2.41 3.793-5.895 6.715-3.537 2.87-7.485 2.87-3.947 0-5.69-1.896-1.743-1.897-1.743-5.024 0-5.485 4.05-11.175 4.101-5.69 8.51-5.69 2.255 0 2.255 1.846 0 2.512-1.538 5.228-1.589 2.666-5.844 7.28 1.948 2.87 5.23 2.87zm11.585-5.741q0 2.563 1.487 4.306 1.538 1.794 3.998 1.794 2.461 0 4.101-.615 1.59-.615 2.46-1.23.872-.615 1.282-.615.667 0 .667.666 0 2.204-4.152 5.229-4.204 3.075-9.689 3.075-3.537 0-5.28-1.742-1.794-1.795-1.794-4.665 0-5.127 4.46-10.304 4.408-5.126 10.15-5.126 1.332 0 2.153.82.82.871.82 2.41 0 1.537-1.743 3.434-1.743 1.897-3.537 1.897-.513 0-.513-.513t.564-1.077q.513-.563.513-1.384 0-.82-.513-1.64-.564-.769-1.23-.769-1.897 0-3.076 1.743-1.128 1.794-1.128 4.306zm20.351-31.372q-2.922 0-2.922 19.428v4.306q1.846-4.716 3.486-10.458 1.59-5.74 1.59-9.534 0-3.742-2.154-3.742zm-2.204 37.165q.718 0 4.152-4.717 3.435-4.767 4.409-4.818.923 0 1.845 1.589.923 1.538 1.846 3.435.871 1.947 2.87 3.537 2.05 1.64 4.05 1.64t2.41-.308q.46-.307.717-.307.256 0 .256.615-.102 1.435-2.306 3.435-2.256 2.05-5.896 2.05-6.151 0-8.612-7.074-.205-.461-.41-.461-.153 0-.512.307-.36.308-1.538 1.64-1.128 1.385-2.307 2.82-1.179 1.435-1.487 1.692-.256.307-1.076.307-.769 0-.871-.871-.616-6.46-.616-13.534 0-7.074.154-10.918.205-3.896.77-9.996.563-6.1 2.05-9.945 1.486-3.896 3.69-3.896 4.665 0 4.665 6.51 0 5.639-3.024 14.097-3.025 8.51-5.793 13.482.257 9.689.564 9.689z" fill="#3531EE"/><defs><linearGradient gradientTransform="rotate(25)" id="a" x1="0%" y1="0%" x2="100%" y2="0%"><stop offset="0%" stop-color="#2F4B8E"/><stop offset="100%" stop-color="#6C6825"/></linearGradient></defs><g fill="url(#a)" transform="translate(97.664 37.751) scale(.20442)"><path d="M241.4 58.8c3.3 0 6-2.7 6-6V17c0-3.3-2.7-6-6-6s-6 2.7-6 6v35.8c0 3.3 2.7 6 6 6zM366 187.7c0 3.3 2.7 6 6 6h35.8c3.3 0 6-2.7 6-6s-2.7-6-6-6H372c-3.3 0-6 2.7-6 6zm-263.8-6H66.4c-3.3 0-6 2.7-6 6s2.7 6 6 6h35.8c3.3 0 6-2.7 6-6s-2.7-6-6-6zm232.9-86c1.6 0 3.1-.6 4.2-1.8l28-28c2.3-2.4 2.3-6.2-.1-8.5-2.3-2.3-6-2.3-8.4 0l-28 28c-2.3 2.3-2.3 6.1 0 8.5 1.2 1.2 2.7 1.8 4.3 1.8zM106.9 66l28 28c2.3 2.4 6.1 2.4 8.5.1 2.4-2.3 2.4-6.1.1-8.5l-.1-.1-28-28c-2.3-2.4-6.1-2.4-8.5-.1-2.4 2.4-2.4 6.2 0 8.6z"/><circle cx="275.3" cy="402.7" r="6.1"/><circle cx="356.6" cy="324.5" r="6.1"/><path d="M190.7 403.8v1.7c0 6.6 5.3 11.9 11.9 11.9h34.8c-.7-4.5-1.2-9.1-1.4-13.6h-45.3zm207.2-33.3c0-3.3-2.7-6.1-6.1-6.1-3.3 0-6.1 2.7-6.1 6.1 0 3.3 2.7 6.1 6.1 6.1 3.4 0 6.1-2.8 6.1-6.1zm-207.2-4.3h14.6c3.3 0 6 2.7 6 6s-2.7 6-6 6h-14.6v13.6h45.5c.3-4.6.9-9.1 1.7-13.6h-14.1c-3.3 0-6-2.7-6-6s2.7-6 6-6h17c1.3-4.4 2.9-8.6 4.7-12.8h-54.9v12.8zm108.5-69c3.8-5.6 8.3-10.8 13.2-15.4 44.6-41.6 47.1-111.5 5.5-156.1-41.6-44.6-111.5-47.1-156.1-5.5-44.6 41.6-47.1 111.5-5.5 156.1 2 2.1 4 4.1 6.1 6.1 16.6 15.3 26.6 36.5 28.1 59h61.2c11.3-19 27.7-34.3 47.5-44.2z"/><path d="M431.5 338.4c-19.2-25.8-49.5-41.1-81.7-41.1-56.2 0-101.8 45.5-101.8 101.8 0 32.4 15.4 62.9 41.6 82.1v-32.3l-16.5-6.6c-2.3-.9-3.8-3.1-3.8-5.6v-17.1c-9.4-3.3-14.3-13.6-11-23 3.3-9.4 13.6-14.3 23-11 9.4 3.3 14.3 13.6 11 23-1.8 5.2-5.9 9.2-11 11v13l16.5 6.6c2.3.9 3.8 3.1 3.8 5.6v44c5.8 3.1 11.8 5.7 18.1 7.6V411l-16.5-16.5c-1.1-1.1-1.8-2.6-1.8-4.2v-11.9c-9.4-3.3-14.3-13.6-11-23 3.3-9.4 13.6-14.3 23-11 9.4 3.3 14.3 13.6 11 23-1.8 5.2-5.9 9.2-11 11v9.4l16.5 16.5c1.1 1.1 1.8 2.7 1.8 4.2v90.9c1.9.3 3.8.6 5.8.9v-66.7c0-1.6.6-3.1 1.8-4.2l11.4-11.4v-76.5c-9.4-3.3-14.3-13.6-11-23 3.3-9.4 13.6-14.3 23-11 9.4 3.3 14.3 13.6 11 23-1.8 5.2-5.9 9.2-11 11v79c0 1.6-.6 3.1-1.8 4.2l-11.4 11.4V501h.3c4.8 0 9.6-.3 14.4-1v-51.1c0-1.3.4-2.5 1.2-3.5l20.5-28.1v-29.7c-9.4-3.3-14.3-13.6-11-23 3.3-9.4 13.6-14.3 23-11 9.4 3.3 14.3 13.6 11 23-1.8 5.2-5.9 9.2-11 11v31.6c0 1.3-.4 2.5-1.2 3.5l-20.5 28.1v46.7c7.8-2.1 15.3-5.1 22.3-9v-22.8c0-1.6.7-3.2 1.9-4.4l13.8-13.1v-9c-9.4-3.3-14.3-13.6-11-23 3.3-9.4 13.6-14.3 23-11 9.4 3.3 14.3 13.6 11 23-1.8 5.2-5.9 9.2-11 11v11.5c0 1.6-.7 3.2-1.9 4.4l-13.8 13.1v12.5c45.2-33.4 54.6-97.2 21-142.3z"/><circle cx="420.2" cy="422.3" r="6.1"/><path d="M313.4 361.3c0-3.3-2.7-6.1-6.1-6.1-3.3 0-6.1 2.7-6.1 6.1 0 3.3 2.7 6.1 6.1 6.1 3.4 0 6.1-2.7 6.1-6.1z"/></g><path d="M49.154 256.46q0 .311-.158.594-.154.283-.416.493-.263.214-.619.34-.351.125-.747.125-.142 0-.226-.037-.081-.04-.182-.145-.283.614-.461 1.131-.178.522-.283 1.007-.214-.053-.347-.178-.138-.13-.251-.32.057-.109.137-.282.077-.178.19-.433.113-.258.263-.618.15-.36.356-.84l.157-.385q.069-.165.117-.307.053-.145.097-.287.04-.141.085-.31-.266.084-.489.197-.222.113-.372.239-.048-.037-.1-.101-.057-.07-.102-.154-.044-.08-.08-.166-.033-.084-.037-.153.162-.113.404-.206.247-.097.522-.17.279-.069.574-.11.299-.04.57-.04.323 0 .581.081.263.085.44.23.183.15.28.352.097.202.097.453zm-1.007-.68q-.218 0-.444.033l.069.105q-.057.073-.142.219-.085.15-.186.355l-.222.46q-.121.255-.259.538.44 0 .805-.085.36-.08.618-.226.258-.141.4-.335.145-.19.145-.412 0-.295-.198-.473t-.586-.178zm7.46.611q0 .27-.12.513-.122.239-.336.429-.214.19-.505.319-.287.133-.627.178.085.254.206.521.122.27.263.517.142.251.295.461.154.21.3.344-.03.056-.082.113-.056.056-.125.105-.073.048-.15.08-.072.029-.14.029-.126 0-.24-.117-.112-.117-.23-.376-.113-.259-.242-.667-.125-.412-.279-.99h-.125q-.06 0-.097-.008-.04-.024-.085-.08-.154.326-.27.617-.118.287-.215.558-.093.267-.162.517-.072.255-.12.514-.195-.045-.336-.166-.142-.117-.267-.331.024-.053.048-.101.029-.049.065-.134l.101-.226q.06-.133.158-.36.1-.226.238-.553.138-.332.336-.8.093-.21.157-.368.065-.158.113-.303.053-.142.097-.287.04-.146.085-.332-.258.09-.485.202-.222.11-.368.235-.052-.037-.105-.101-.052-.07-.1-.154-.045-.08-.077-.166-.037-.084-.04-.153.169-.113.415-.206.247-.097.522-.17.279-.069.566-.11.29-.04.537-.04.679 0 1.055.28.372.282.372.767zm-1.446-.582l.069.11q-.04.048-.126.201-.085.154-.198.364-.109.214-.23.46-.121.251-.235.494.425 0 .78-.077.356-.08.619-.226.258-.142.404-.34.145-.194.145-.432 0-.283-.206-.433-.202-.15-.626-.15-.097 0-.194.009-.097.008-.202.02zm6.902-.42q.105.048.219.117.113.073.21.146.097.072.161.141.065.073.073.117-.097-.02-.194-.028-.097-.012-.174-.012-.254 0-.509.125-.25.125-.477.34-.226.214-.42.505-.19.287-.331.614-.138.331-.215.679-.08.352-.08.691 0 .44.145.659.15.214.432.214.134 0 .296-.053.157-.056.319-.153.165-.093.323-.23.158-.138.295-.3.198-.238.356-.541.157-.303.27-.643.11-.34.17-.699.057-.36.057-.703 0-.137-.004-.23t-.016-.158l-.013-.105q-.004-.04-.012-.069.069.037.15.085.085.049.153.142.073.092.118.246.048.15.048.396 0 .396-.093.776-.093.384-.258.727-.166.344-.392.647-.227.3-.49.525-.339.3-.723.465-.384.162-.74.162-.52 0-.796-.332-.274-.33-.274-.974 0-.347.076-.731.077-.384.215-.756.137-.376.331-.711.194-.335.42-.594.23-.259.493-.412.263-.15.542-.15.089 0 .17.012.076.017.17.053zm6.648 4.538q-.012.008-.024.008h-.044q-.081 0-.186-.028-.101-.024-.202-.06-.097-.037-.17-.081-.069-.049-.089-.081-.004-.081-.004-.166v-.162q0-.634.093-1.325t.307-1.491q.024-.081.048-.202.029-.122.057-.263-.137.105-.323.343-.186.235-.396.554-.206.32-.412.7-.207.383-.376.775-.17.392-.291.78-.122.384-.15.711-.27-.08-.376-.157-.105-.081-.105-.194 0-.101.06-.287.066-.186.179-.44.113-.255.275-.57.165-.316.363-.675.227-.417.445-.776.218-.364.428-.659.206-.291.408-.51.202-.213.4-.327.077 0 .21.04.134.041.263.098.126.056.227.113.097.06.109.101-.081.158-.186.477-.11.315-.218.715-.11.404-.21.853-.098.449-.154.865.13-.311.299-.65.174-.336.368-.668.19-.331.392-.642t.392-.566q.194-.259.36-.453.169-.19.298-.283.077 0 .21.04.134.041.263.098.125.056.227.113.096.06.109.101-.182.323-.316.788-.137.46-.23.97t-.141 1.01q-.049.501-.049.897v.271q0 .142.012.295-.08 0-.19-.02-.109-.02-.214-.052-.105-.033-.19-.077-.085-.04-.121-.093-.004-.081-.004-.166v-.162q0-.634.093-1.325t.307-1.491q.024-.081.053-.219.028-.133.056-.282-.158.08-.36.303-.202.226-.408.545-.206.32-.404.707-.202.392-.364.797-.161.404-.27.804-.114.4-.134.731zm8.362-4.538q.109.048.222.117.113.073.206.146.097.072.162.141.064.073.072.117-.097-.02-.194-.028-.097-.012-.173-.012-.255 0-.505.125-.255.125-.481.34-.227.214-.417.505-.194.287-.331.614-.141.331-.218.679-.081.352-.081.691 0 .44.15.659.145.214.428.214.137 0 .295-.053.157-.056.323-.153.162-.093.32-.23.161-.138.294-.3.198-.238.356-.541.162-.303.27-.643.11-.34.17-.699.061-.36.061-.703 0-.137-.008-.23-.004-.093-.012-.158t-.016-.105q-.004-.04-.012-.069l.153.085q.081.049.15.142.073.092.121.246.049.15.049.396 0 .396-.093.776-.097.384-.263.727-.166.344-.392.647-.226.3-.49.525-.339.3-.722.465-.384.162-.74.162-.521 0-.796-.332-.275-.33-.275-.974 0-.347.077-.731t.214-.756q.141-.376.331-.711.194-.335.425-.594.226-.259.489-.412.262-.15.541-.15.09 0 .17.012.08.017.17.053zm5.16.69q-.226 0-.347-.124-.121-.13-.121-.312 0-.044.012-.105.016-.064.036-.109.073.037.218.049.146.016.336.016.29 0 .654-.028.364-.025.7-.053.335-.028.59-.052.254-.029.327-.029.21 0 .303.158.093.153.137.416-.145-.012-.29-.02-.146-.008-.247-.008-.182 0-.364.012-.186.008-.372.032-.08.166-.173.388-.097.223-.19.465-.093.247-.178.485l-.15.432q-.125.376-.218.691-.093.316-.161.59-.073.275-.122.526-.052.246-.093.485-.38-.057-.634-.473.048-.178.113-.384.065-.206.154-.469.084-.262.206-.598.117-.331.27-.756l.118-.33q.064-.175.12-.344.062-.17.11-.328.049-.157.08-.29-.238.028-.448.048-.214.02-.376.02zm5.206 3.109q0-.206.064-.53.065-.327.17-.703.105-.376.238-.768.138-.392.28-.74.14-.343.278-.605.133-.26.243-.372.056.004.15.044.092.037.19.085.096.053.173.113.08.057.1.11-.16.145-.322.444-.162.295-.312.675-.15.38-.278.8-.134.42-.227.816-.097.396-.15.736-.056.34-.056.55 0 .096.016.12-.12-.007-.178-.044-.056-.036-.088-.077-.033-.044-.057-.084-.024-.045-.077-.07-.04-.015-.068-.076-.029-.065-.049-.137-.02-.077-.028-.158-.012-.08-.012-.13zm4.942.751q-.32-.097-.432-.181-.113-.09-.113-.243 0-.17.076-.477.081-.311.206-.687.13-.38.291-.792.166-.416.336-.792.17-.38.331-.695.162-.315.287-.49l-.04-.238q.077 0 .218.04.141.041.287.098.145.056.254.113.11.06.122.101-.029.137-.045.412-.016.271-.016.582 0 .619.049 1.209.048.594.222 1.204.089-.453.194-.901.105-.453.218-.861.113-.412.226-.764.114-.348.219-.614.105-.263.194-.412.093-.15.165-.162.06.012.138.048.072.037.141.09.065.052.121.112.057.061.093.126-.182.072-.36.343-.177.271-.339.659-.161.388-.299.84-.141.453-.242.894-.105.436-.166.812-.06.372-.065.598 0 .012.004.016-.016.008-.036.008h-.036q-.259 0-.461-.064-.202-.069-.263-.186-.121-.477-.198-.918-.08-.44-.133-.88-.053-.441-.085-.894-.032-.448-.049-.941-.109.17-.226.444-.117.275-.23.602-.113.328-.218.691-.106.364-.186.708-.077.343-.126.654-.044.307-.044.534 0 .117.004.17.004.052.012.084zm9.327-2.23q.146 0 .23.105.086.1.086.283 0 .044-.004.093-.009.048-.02.08-.118-.028-.26-.032-.032.247-.181.521-.146.275-.356.518-.21.238-.456.42-.251.182-.493.242-.76-.016-1.108-.392-.347-.375-.347-1.176 0-.582.214-1.127.214-.546.574-.97.355-.424.816-.683.46-.259.958-.259.392 0 .61.166.218.166.218.465 0 .198-.097.368-.093.17-.307.367-.13-.04-.226-.137-.097-.101-.117-.23.19-.142.27-.263.081-.117.081-.283 0-.259-.31-.259-.256 0-.546.19-.296.19-.586.546-.42.505-.615 1.038-.19.534-.19 1.2 0 .251.049.453.052.206.137.36.085.15.202.242.113.09.25.101.183-.04.365-.181.177-.146.33-.34.15-.198.251-.42.106-.222.13-.429-.158.037-.303.065-.146.032-.275.032-.17 0-.295-.084-.13-.085-.174-.23.101-.057.3-.122.193-.06.411-.113.223-.057.437-.089.21-.036.347-.036zm9.881-.61q.19 0 .291.1.105.105.105.283 0 .049-.008.093-.008.049-.02.085-.073-.012-.162-.02-.092-.008-.214-.008-.246 0-.493.04-.25.045-.477.073-.129.299-.238.578-.105.283-.182.513-.077.23-.117.4-.045.17-.049.255.457-.093.922-.162.469-.069.982-.1.064.092.105.205.044.113.044.247v.072q0 .04-.012.077l-.335-.008h-.457q-.186 0-.356.008-.165.008-.335.025-.17.016-.36.044-.19.028-.424.069-.263-.101-.505-.497.097-.207.267-.623.173-.412.44-1.111-.254-.077-.335-.283.028-.028.165-.069.138-.044.336-.089.085-.218.141-.384.06-.165.105-.307.045-.145.081-.283.04-.141.073-.303-.198-.012-.311-.109-.113-.1-.113-.258 0-.045.012-.11.016-.06.032-.105.113.017.218.02.105.009.275.009.356 0 .667-.02.311-.02.562-.045.254-.02.436-.04.178-.02.275-.02.13 0 .234.133.101.137.15.388-.174-.02-.283-.025-.113-.004-.198-.004-.311 0-.566.029-.259.032-.497.064-.032.053-.077.134-.04.077-.109.218-.069.141-.166.356-.1.218-.242.537.214-.032.404-.052.19-.02.32-.02zm4.32 2.117q.085-.186.203-.48.117-.296.25-.64.13-.339.263-.699.137-.36.254-.683.122-.323.207-.577.088-.255.129-.388-.356.145-.61.444-.255.3-.384.752-.134-.045-.239-.162-.109-.113-.141-.29.056-.26.21-.474.158-.214.396-.367.234-.154.546-.235.31-.085.67-.085.453 0 .829.134.38.133.65.371.275.239.425.57.153.336.153.744 0 .554-.202 1.059-.206.5-.553.885-.348.388-.805.614-.46.23-.961.23-.465 0-.796-.181-.332-.186-.494-.542zm1.997-3.6q-.283 0-.538.08.247.089.413.19.165.097.226.154-.045.064-.133.222-.09.157-.203.384-.117.226-.246.497-.13.267-.255.55-.323.719-.468 1.131-.142.412-.142.574.077.028.19.036.113.012.243.012.46 0 .868-.21.413-.214.72-.57.307-.355.485-.828.182-.473.182-.994 0-.582-.364-.905-.364-.324-.978-.324zm7.028.084q-.25.335-.453.736-.206.404-.352.824-.141.42-.218.833-.077.408-.077.767 0 .44.13.639.13.198.448.198.368 0 .643-.259.279-.258.521-.711.158-.291.271-.643.113-.351.186-.723.069-.368.105-.744.032-.38.032-.723 0-.222-.004-.323-.008-.101-.016-.162.016 0 .085.008l.154.028q.088.02.177.049.085.028.15.06-.028.429-.105.89-.077.456-.202.905-.126.444-.287.86-.166.413-.368.74-.303.485-.675.76-.372.275-.88.275-.522 0-.813-.303-.287-.303-.287-.918 0-.355.08-.808.078-.448.21-.913.134-.469.308-.914.178-.444.368-.796.097.008.226.04.133.037.255.09.125.052.23.117.105.064.158.121zm4.829 2.7q0-.396.093-.776.093-.384.263-.728.17-.34.408-.626.234-.287.513-.493.279-.21.598-.327.315-.118.65-.118.389 0 .607.166.218.166.218.457 0 .113-.032.234-.028.117-.089.234-.06.118-.137.223-.081.109-.178.186-.146-.02-.255-.134-.105-.109-.133-.254.198-.166.311-.344.117-.178.117-.323 0-.25-.311-.25-.13 0-.27.052-.138.056-.28.15-.141.096-.274.234-.134.133-.247.299-.784 1.131-.784 2.315 0 .417.13.671.129.255.343.3.246-.057.618-.312.372-.254.817-.659.056.057.064.118-.161.214-.34.412-.173.198-.347.364-.17.161-.34.287-.165.125-.306.194-.704-.013-1.063-.405-.364-.388-.364-1.147zm6.24 1.54q-.271-.081-.376-.158-.105-.081-.105-.198 0-.093.052-.255.053-.166.15-.388.101-.222.238-.497.138-.27.316-.582l-.263-.008q-.117-.004-.19-.004.032-.085.19-.145.158-.061.42-.11.218-.367.473-.699.25-.335.505-.614.255-.279.51-.493.254-.21.484-.335.008-.04.012-.07v-.04q.081 0 .215.04.133.041.258.098.13.056.227.113.1.06.109.101-.186.327-.368.982-.178.655-.3 1.564-.027.226-.048.513-.02.291-.02.647v.254q0 .13.012.271-.012.008-.02.008h-.048q-.077 0-.182-.028-.105-.024-.206-.06-.097-.037-.166-.081-.073-.049-.089-.081-.008-.073-.008-.146v-.15q0-.35.028-.71.025-.364.085-.748-.077-.004-.206-.016-.133-.008-.29-.012-.163-.004-.348-.017-.182-.008-.36-.012-.134.255-.255.505-.117.255-.202.51-.097.27-.157.541-.057.27-.077.51zm2.186-3.4l.053-.218q.032-.141.06-.29-.141.048-.315.185-.174.134-.356.336-.185.202-.371.452-.19.251-.368.534.477-.037 1.083-.049.044-.238.097-.472.052-.235.117-.477zm4.91-.46q-.226 0-.347-.125-.122-.13-.122-.312 0-.044.013-.105.016-.064.036-.109.077.037.218.049.146.016.34.016.287 0 .65-.028.368-.025.7-.053.335-.028.59-.052.254-.029.327-.029.21 0 .303.158.093.153.137.416-.145-.012-.29-.02-.146-.008-.247-.008-.182 0-.364.012-.186.008-.372.032-.076.166-.173.388-.097.223-.19.465-.093.247-.178.485l-.15.432q-.121.376-.218.691-.093.316-.162.59-.072.275-.12.526-.053.246-.094.485-.376-.057-.63-.473.044-.178.109-.384.065-.206.153-.469.085-.262.207-.598.117-.331.27-.756l.118-.33q.064-.175.12-.344.061-.17.11-.328.048-.157.08-.29-.234.028-.448.048-.21.02-.376.02zm5.205 3.108q0-.206.065-.53.065-.327.17-.703.105-.376.242-.768.134-.392.275-.74.142-.343.279-.605.133-.26.242-.372.057.004.15.044.093.037.19.085.097.053.174.113.08.057.105.11-.166.145-.328.444-.161.295-.31.675-.15.38-.28.8-.129.42-.226.816-.097.396-.15.736-.056.34-.056.55 0 .096.02.12-.125-.007-.182-.044-.056-.036-.089-.077-.032-.044-.056-.084-.024-.045-.077-.07-.04-.015-.069-.076-.028-.065-.048-.137-.016-.077-.028-.158-.013-.08-.013-.13zm7.048-3.8q.11.05.223.118.113.073.21.146.097.072.162.141.064.073.068.117-.097-.02-.19-.028-.097-.012-.178-.012-.254 0-.505.125-.25.125-.477.34-.226.214-.42.505-.194.287-.331.614-.138.331-.218.679-.077.352-.077.691 0 .44.145.659.146.214.429.214.137 0 .295-.053.157-.056.323-.153.166-.093.323-.23.158-.138.295-.3.198-.238.356-.541.158-.303.267-.643.113-.34.17-.699.06-.36.06-.703 0-.137-.004-.23-.008-.093-.016-.158l-.012-.105q-.008-.04-.012-.069.068.037.149.085.08.049.154.142.068.092.117.246.048.15.048.396 0 .396-.093.776-.093.384-.258.727-.17.344-.396.647-.227.3-.485.525-.34.3-.724.465-.388.162-.743.162-.522 0-.792-.332-.275-.33-.275-.974 0-.347.077-.731.072-.384.214-.756.137-.376.331-.711.19-.335.42-.594.23-.259.494-.412.262-.15.537-.15.093 0 .17.012.08.017.17.053zm4.818 4.551q-.324-.097-.437-.181-.113-.09-.113-.243 0-.17.08-.477.078-.311.207-.687.125-.38.291-.792.162-.416.331-.792.17-.38.332-.695.161-.315.287-.49l-.04-.238q.08 0 .222.04.141.041.286.098.142.056.255.113.11.06.121.101-.028.137-.048.412-.016.271-.016.582 0 .619.048 1.209.049.594.222 1.204.093-.453.198-.901.106-.453.219-.861.113-.412.226-.764.113-.348.218-.614.101-.263.194-.412.09-.15.162-.162.065.012.137.048.073.037.142.09.068.052.125.112.057.061.089.126-.182.072-.36.343t-.34.659q-.16.388-.298.84-.138.453-.243.894-.105.436-.165.812-.057.372-.065.598 0 .012.008.016-.02.008-.036.008h-.04q-.26 0-.462-.064-.198-.069-.262-.186-.117-.477-.198-.918-.077-.44-.134-.88-.052-.441-.084-.894-.029-.448-.049-.941-.105.17-.226.444-.117.275-.23.602-.114.328-.219.691-.105.364-.182.708-.08.343-.125.654-.044.307-.044.534v.17q.004.052.016.084zm11.485-3.86q-.226 0-.348-.124-.12-.13-.12-.312 0-.044.011-.105.017-.064.037-.109.072.037.218.049.145.016.335.016.291 0 .655-.028.364-.025.7-.053.335-.028.59-.052.254-.029.327-.029.21 0 .303.158.093.153.137.416-.145-.012-.29-.02-.146-.008-.247-.008-.182 0-.364.012-.186.008-.372.032-.08.166-.174.388-.097.223-.19.465-.093.247-.177.485l-.15.432q-.125.376-.218.691-.093.316-.162.59-.073.275-.121.526-.053.246-.093.485-.38-.057-.635-.473.049-.178.114-.384.064-.206.153-.469.085-.262.206-.598l.271-.756.117-.33q.065-.175.122-.344.06-.17.109-.328.048-.157.08-.29-.238.028-.448.048-.214.02-.376.02zm7.242 3.1q0-.234.077-.61.08-.371.21-.796-.372.029-.748.073t-.654.053q-.255.594-.404 1.09-.15.502-.235.979-.214-.053-.356-.178-.141-.13-.262-.32.044-.092.105-.234.06-.141.141-.34.081-.201.186-.468l.243-.626q-.186-.081-.25-.223.027-.02.128-.048.097-.024.247-.053l.073-.182q.117-.303.194-.513.076-.21.129-.412.057-.198.105-.445l.113-.614q.239.045.433.21.198.162.34.396-.053.065-.126.202-.073.138-.162.324-.089.19-.19.424-.1.238-.222.497.352-.044.711-.085.36-.04.639-.056.1-.295.21-.574.109-.28.218-.513.11-.23.206-.409.101-.173.178-.258.057.004.15.044.093.037.19.085.097.053.177.113.077.057.105.11-.1.096-.202.246-.1.153-.202.351-.097.198-.194.433-.097.23-.182.48.114.102.114.255 0 .105-.045.198-.052-.012-.1-.016l-.11-.008q-.097.307-.174.606-.08.3-.133.57-.057.27-.085.497-.032.227-.032.38 0 .057.004.093 0 .032.008.057-.125-.008-.182-.045-.057-.036-.085-.077l-.052-.084q-.02-.045-.073-.07-.04-.015-.073-.076-.032-.065-.057-.141-.024-.081-.032-.158-.012-.08-.012-.133zm8.289-2.788q0 .27-.122.513-.12.239-.339.429-.214.19-.501.319-.291.133-.63.178.084.254.21.521.12.27.262.517.142.251.291.461.154.21.303.344-.028.056-.085.113-.052.056-.125.105-.069.048-.145.08-.077.029-.146.029-.121 0-.234-.117-.113-.117-.23-.376-.118-.259-.243-.667-.13-.412-.283-.99h-.121q-.065 0-.097-.008-.04-.024-.085-.08-.154.326-.27.617-.122.287-.215.558-.093.267-.162.517-.072.255-.125.514-.19-.045-.331-.166-.142-.117-.267-.331.024-.053.049-.101l.064-.134.101-.226q.057-.133.158-.36.097-.226.234-.553l.34-.8q.089-.21.153-.368.065-.158.117-.303.053-.142.093-.287.045-.146.09-.332-.263.09-.486.202-.222.11-.371.235-.049-.037-.101-.101-.057-.07-.102-.154-.044-.08-.08-.166-.033-.084-.037-.153.17-.113.417-.206.242-.097.52-.17.28-.069.567-.11.287-.04.537-.04.68 0 1.05.28.377.282.377.767zm-1.451-.582l.069.11q-.04.048-.126.201-.085.154-.194.364-.109.214-.23.46-.121.251-.234.494.424 0 .78-.077.355-.08.614-.226.263-.142.408-.34.141-.194.141-.432 0-.283-.202-.433-.206-.15-.63-.15-.093 0-.19.009-.097.008-.206.02zm6.902-.42q.11.048.223.117.113.073.21.146.097.072.161.141.065.073.07.117-.098-.02-.19-.028-.098-.012-.179-.012-.254 0-.505.125-.25.125-.477.34-.226.214-.42.505-.194.287-.331.614-.138.331-.219.679-.076.352-.076.691 0 .44.145.659.146.214.429.214.137 0 .295-.053.157-.056.323-.153.166-.093.323-.23.158-.138.295-.3.198-.238.356-.541.157-.303.267-.643.113-.34.17-.699.06-.36.06-.703 0-.137-.004-.23-.008-.093-.016-.158l-.012-.105q-.009-.04-.013-.069.07.037.15.085.08.049.154.142.068.092.117.246.048.15.048.396 0 .396-.093.776-.093.384-.262.727-.166.344-.392.647-.227.3-.485.525-.34.3-.724.465-.388.162-.743.162-.522 0-.796-.332-.271-.33-.271-.974 0-.347.073-.731.076-.384.218-.756.137-.376.331-.711.19-.335.42-.594.23-.259.493-.412.263-.15.538-.15.093 0 .17.012.08.017.17.053zm6.487.311q-.25.335-.453.736-.206.404-.347.824-.146.42-.223.833-.077.408-.077.767 0 .44.13.639.133.198.448.198.368 0 .647-.259.275-.258.517-.711.162-.291.275-.643.113-.351.182-.723.073-.368.105-.744.032-.38.032-.723 0-.222-.004-.323t-.016-.162q.016 0 .085.008l.154.028q.088.02.177.049.085.028.15.06-.028.429-.105.89-.077.456-.202.905-.126.444-.287.86-.166.413-.368.74-.299.485-.675.76-.372.275-.88.275-.522 0-.81-.303-.29-.303-.29-.918 0-.355.08-.808.078-.448.21-.913.134-.469.312-.914.174-.444.368-.796.093.008.226.04.13.037.255.09.121.052.226.117.105.064.158.121zm7.735 2.009q.145 0 .23.105.085.1.085.283 0 .044-.004.093-.008.048-.02.08-.118-.028-.259-.032-.032.247-.182.521-.145.275-.355.518-.21.238-.457.42-.25.182-.493.242-.76-.016-1.107-.392-.348-.375-.348-1.176 0-.582.214-1.127.214-.546.574-.97.356-.424.816-.683.461-.259.958-.259.392 0 .61.166.219.166.219.465 0 .198-.097.368-.093.17-.308.367-.129-.04-.226-.137-.097-.101-.117-.23.19-.142.27-.263.082-.117.082-.283 0-.259-.312-.259-.254 0-.55.19-.29.19-.581.546-.42.505-.614 1.038-.19.534-.19 1.2 0 .251.048.453.053.206.138.36.084.15.202.242.113.09.25.101.182-.04.364-.181.178-.146.327-.34.154-.198.255-.42.105-.222.13-.429-.158.037-.304.065-.145.032-.275.032-.17 0-.295-.084-.13-.085-.174-.23.101-.057.295-.122.198-.06.417-.113.222-.057.432-.089.214-.036.352-.036zm5.577 1.47q0-.234.08-.61.077-.371.207-.796-.372.029-.748.073t-.655.053q-.254.594-.404 1.09-.15.502-.234.979-.214-.053-.356-.178-.141-.13-.263-.32.049-.092.106-.234.06-.141.141-.34.085-.201.186-.468l.242-.626q-.186-.081-.25-.223.028-.02.13-.048.096-.024.246-.053l.072-.182q.118-.303.194-.513.077-.21.13-.412.056-.198.105-.445.048-.242.113-.614.238.045.432.21.198.162.34.396-.053.065-.125.202-.073.138-.162.324-.089.19-.19.424-.101.238-.218.497.347-.044.707-.085.36-.04.638-.056.101-.295.21-.574.114-.28.219-.513.109-.23.206-.409.101-.173.178-.258.056.004.15.044.096.037.19.085.096.053.177.113.077.057.105.11-.1.096-.202.246-.101.153-.202.351-.097.198-.194.433-.097.23-.182.48.113.102.113.255 0 .105-.044.198-.053-.012-.101-.016l-.11-.008q-.096.307-.173.606-.08.3-.133.57-.053.27-.085.497-.033.227-.033.38 0 .057.004.093l.008.057q-.125-.008-.181-.045-.057-.036-.085-.077-.029-.044-.049-.084-.024-.045-.077-.07-.036-.015-.072-.076-.033-.065-.057-.141-.02-.081-.032-.158-.012-.08-.012-.133zm8.87.76q-.27-.08-.376-.157-.105-.081-.105-.198 0-.093.053-.255.048-.166.15-.388.096-.222.238-.497.137-.27.311-.582l-.263-.008q-.113-.004-.19-.004.037-.085.194-.145.158-.061.42-.11.219-.367.47-.699.254-.335.509-.614.254-.279.509-.493.255-.21.485-.335.008-.04.008-.07.004-.027.004-.04.08 0 .21.04.134.041.263.098.125.056.226.113.097.06.11.101-.187.327-.368.982-.182.655-.3 1.564-.028.226-.048.513-.02.291-.02.647v.254q0 .13.012.271-.012.008-.024.008h-.045q-.077 0-.182-.028-.105-.024-.206-.06-.097-.037-.17-.081-.068-.049-.084-.081-.008-.073-.008-.146v-.15q0-.35.024-.71.028-.364.089-.748-.077-.004-.21-.016-.13-.008-.291-.012-.162-.004-.344-.017-.186-.008-.36-.012-.137.255-.254.505-.117.255-.202.51-.097.27-.158.541-.06.27-.077.51zm2.187-3.398l.052-.219q.033-.141.06-.29-.14.048-.314.185-.174.134-.356.336-.186.202-.376.452-.19.251-.364.534.477-.037 1.08-.049.048-.238.1-.472.053-.235.118-.477zm4.166 1.859q0-.396.093-.776.097-.384.267-.728.17-.34.404-.626.234-.287.513-.493.28-.21.598-.327.316-.118.651-.118.388 0 .606.166.218.166.218.457 0 .113-.032.234-.028.117-.089.234-.06.118-.137.223-.081.109-.178.186-.145-.02-.255-.134-.105-.109-.133-.254.198-.166.311-.344.117-.178.117-.323 0-.25-.31-.25-.13 0-.267.052-.142.056-.283.15-.142.096-.275.234-.13.133-.243.299-.788 1.131-.788 2.315 0 .417.13.671.129.255.347.3.243-.057.614-.312.376-.254.817-.659.056.057.068.118-.165.214-.339.412-.178.198-.352.364-.17.161-.34.287-.165.125-.306.194-.7-.013-1.063-.405-.364-.388-.364-1.147zm7.068-2.32q-.226 0-.347-.125-.121-.13-.121-.312 0-.044.012-.105.016-.064.036-.109.077.037.218.049.146.016.34.016.287 0 .65-.028.368-.025.7-.053.335-.028.59-.052.254-.029.327-.029.21 0 .303.158.093.153.138.416-.146-.012-.291-.02-.146-.008-.247-.008-.182 0-.364.012-.186.008-.371.032-.077.166-.174.388-.097.223-.19.465-.093.247-.178.485l-.15.432q-.12.376-.218.691-.093.316-.161.59-.073.275-.122.526-.052.246-.093.485-.375-.057-.63-.473.044-.178.11-.384.064-.206.153-.469.084-.262.206-.598.117-.331.27-.756l.118-.33.125-.344q.057-.17.105-.328.049-.157.08-.29-.234.028-.448.048-.21.02-.376.02zm5.206 3.108q0-.206.064-.53.065-.327.17-.703.105-.376.243-.768.133-.392.274-.74.142-.343.28-.605.133-.26.242-.372.056.004.15.044.092.037.19.085.096.053.173.113.08.057.105.11-.166.145-.327.444-.162.295-.312.675-.15.38-.278.8-.13.42-.227.816-.097.396-.15.736-.056.34-.056.55 0 .096.02.12-.125-.007-.181-.044-.057-.036-.09-.077-.032-.044-.056-.084-.024-.045-.077-.07-.04-.015-.068-.076-.029-.065-.045-.137-.02-.077-.032-.158-.012-.08-.012-.13zm7.048-3.8q.109.05.222.118.113.073.21.146.097.072.162.141.064.073.068.117-.097-.02-.19-.028-.097-.012-.177-.012-.255 0-.506.125-.25.125-.476.34-.227.214-.42.505-.195.287-.332.614-.137.331-.218.679-.077.352-.077.691 0 .44.145.659.146.214.429.214.137 0 .295-.053.157-.056.323-.153.166-.093.323-.23.158-.138.295-.3.198-.238.356-.541.158-.303.267-.643.113-.34.17-.699.06-.36.06-.703 0-.137-.004-.23-.008-.093-.016-.158l-.012-.105q-.008-.04-.012-.069.068.037.15.085.08.049.153.142.068.092.117.246.048.15.048.396 0 .396-.092.776-.093.384-.26.727-.169.344-.395.647-.226.3-.485.525-.34.3-.724.465-.387.162-.743.162-.521 0-.792-.332-.275-.33-.275-.974 0-.347.077-.731.073-.384.214-.756.137-.376.331-.711.19-.335.42-.594.231-.259.494-.412.262-.15.537-.15.093 0 .17.012.08.017.17.053zm4.817 4.551q-.323-.097-.437-.181-.113-.09-.113-.243 0-.17.081-.477.077-.311.206-.687.125-.38.291-.792.162-.416.332-.792.17-.38.33-.695.163-.315.288-.49l-.04-.238q.08 0 .222.04.141.041.287.098.141.056.254.113.11.06.121.101-.028.137-.048.412-.016.271-.016.582 0 .619.048 1.209.049.594.223 1.204.093-.453.198-.901.105-.453.218-.861.113-.412.226-.764.113-.348.218-.614.101-.263.194-.412.09-.15.162-.162.065.012.137.048.073.037.142.09.069.052.125.112.057.061.089.126-.182.072-.36.343-.177.271-.34.659-.16.388-.298.84-.138.453-.243.894-.105.436-.165.812-.057.372-.065.598 0 .012.008.016-.02.008-.036.008h-.04q-.26 0-.461-.064-.198-.069-.263-.186-.117-.477-.198-.918-.077-.44-.133-.88-.053-.441-.085-.894-.029-.448-.049-.941-.105.17-.226.444-.117.275-.23.602-.114.328-.219.691-.105.364-.182.708-.08.343-.125.654-.044.307-.044.534v.17q.004.052.016.084z" fill="#338EDD"/></svg>