<svg data-v-fde0c5aa="" xmlns="http://www.w3.org/2000/svg" viewBox="0 0 300 300" class="iconAboveSlogan"><!----><defs data-v-fde0c5aa=""><!----></defs><!----><defs data-v-fde0c5aa=""><!----></defs><g data-v-fde0c5aa="" id="7bbb4cca-bd99-45e4-94df-5a0a7444b492" fill="#3531EE" transform="matrix(5.126199919055786,0,0,5.126199919055786,10.618621463187054,143.24946334461563)"><path d="M8.33 5.54L8.33 5.54L8.33 5.54Q8.23 5.54 8.17 5.48L8.17 5.48L8.17 5.48Q8.11 5.42 8.11 5.35L8.11 5.35L8.11 5.35Q8.11 5.28 8.18 5.15L8.18 5.15L8.18 5.15Q8.25 5.03 8.25 4.91L8.25 4.91L8.25 4.91Q8.25 4.59 7.92 4.44L7.92 4.44L7.92 4.44Q7.59 4.30 7.24 4.30L7.24 4.30L7.24 4.30Q6.20 4.30 5.08 5.00L5.08 5.00L5.08 5.00Q3.95 5.70 3.75 6.68L3.75 6.68L3.75 6.68Q3.82 7.27 4.33 7.78L4.33 7.78L4.33 7.78Q4.84 8.29 5.52 8.66L5.52 8.66L5.52 8.66Q6.19 9.03 6.85 9.41L6.85 9.41L6.85 9.41Q7.50 9.79 7.95 10.30L7.95 10.30L7.95 10.30Q8.40 10.82 8.40 11.36L8.40 11.36L8.40 11.36Q8.40 11.90 8.01 12.41L8.01 12.41L8.01 12.41Q7.62 12.92 7.23 13.27L7.23 13.27L7.23 13.27Q6.85 13.62 6.85 13.64L6.85 13.64L6.85 13.64Q6.85 13.66 6.89 13.66L6.89 13.66L6.89 13.66Q7.74 13.66 9.23 12.73L9.23 12.73L9.37 12.63L9.37 12.63Q9.46 12.57 9.51 12.57L9.51 12.57L9.51 12.57Q9.56 12.57 9.62 12.66L9.62 12.66L9.62 12.66Q9.67 12.74 9.67 12.84L9.67 12.84L9.67 12.84Q9.67 12.94 9.49 13.03L9.49 13.03L9.49 13.03Q8.68 13.80 6.46 14.50L6.46 14.50L6.46 14.50Q4.24 15.20 2.45 15.20L2.45 15.20L2.45 15.20Q0 15.20 0 13.78L0 13.78L0 13.78Q0 13.57 0.42 13.17L0.42 13.17L0.42 13.17Q1.06 12.59 1.20 12.59L1.20 12.59L1.20 12.59Q1.34 12.59 1.92 12.94L1.92 12.94L1.92 12.94Q2.49 13.29 3.36 13.64L3.36 13.64L3.36 13.64Q4.23 13.99 5.08 13.99L5.08 13.99L5.08 13.99Q5.94 13.99 6.39 13.45L6.39 13.45L6.39 13.45Q6.85 12.92 6.85 12.36L6.85 12.36L6.85 12.36Q6.85 11.80 6.37 11.35L6.37 11.35L6.37 11.35Q5.89 10.91 5.21 10.56L5.21 10.56L5.21 10.56Q4.54 10.22 3.85 9.86L3.85 9.86L3.85 9.86Q3.16 9.49 2.69 8.97L2.69 8.97L2.69 8.97Q2.21 8.46 2.21 7.84L2.21 7.84L2.21 7.84Q2.21 6.85 3.32 5.75L3.32 5.75L3.32 5.75Q4.42 4.66 5.85 3.99L5.85 3.99L5.85 3.99Q7.28 3.32 8.29 3.32L8.29 3.32L8.29 3.32Q9.55 3.32 9.55 4.16L9.55 4.16L9.55 4.16Q9.55 4.66 9.09 5.10L9.09 5.10L9.09 5.10Q8.64 5.54 8.33 5.54ZM12.67 12.33L12.67 12.33L12.61 12.73L12.61 12.73Q12.61 12.98 12.83 13.25L12.83 13.25L12.83 13.25Q13.05 13.52 13.34 13.52L13.34 13.52L13.34 13.52Q13.57 13.52 13.71 13.43L13.71 13.43L13.71 13.43Q14.01 13.22 14.09 13.14L14.09 13.14L14.09 13.14Q14.17 13.06 14.34 13.06L14.34 13.06L14.34 13.06Q14.52 13.06 14.52 13.19L14.52 13.19L14.52 13.19Q14.52 13.33 13.86 14.07L13.86 14.07L13.86 14.07Q13.65 14.31 13.24 14.57L13.24 14.57L13.24 14.57Q12.84 14.84 12.52 14.84L12.52 14.84L12.52 14.84Q12.21 14.84 12.05 14.73L12.05 14.73L12.05 14.73Q11.89 14.63 11.82 14.41L11.82 14.41L11.82 14.41Q11.73 14.10 11.73 13.65L11.73 13.65L11.73 13.65Q11.73 13.59 11.66 13.59L11.66 13.59L11.66 13.59Q11.59 13.59 11.34 13.87L11.34 13.87L11.34 13.87Q10.56 14.69 10.07 14.69L10.07 14.69L10.07 14.69Q9.59 14.69 9.33 14.43L9.33 14.43L9.33 14.43Q9.07 14.18 9.07 13.79L9.07 13.79L9.07 13.79Q9.07 13.10 9.44 12.48L9.44 12.48L9.44 12.48Q9.80 11.86 10.30 11.48L10.30 11.48L10.30 11.48Q11.42 10.65 12.04 10.65L12.04 10.65L12.04 10.65Q12.96 10.68 12.96 11.31L12.96 11.31L12.96 11.31Q12.96 11.54 12.77 11.75L12.77 11.75L12.77 11.75Q12.57 11.97 12.40 11.97L12.40 11.97L12.40 11.97Q12.24 11.97 11.94 11.68L11.94 11.68L11.94 11.68Q11.65 11.38 11.30 11.38L11.30 11.38L11.30 11.38Q10.95 11.38 10.72 11.67L10.72 11.67L10.72 11.67Q10.50 11.96 10.50 12.40L10.50 12.40L10.50 12.40Q10.50 13.13 11.27 13.13L11.27 13.13L11.27 13.13Q11.58 13.13 11.78 12.98L11.78 12.98L11.78 12.98Q11.98 12.82 12.07 12.64L12.07 12.64L12.07 12.64Q12.31 12.17 12.50 12.17L12.50 12.17L12.50 12.17Q12.67 12.17 12.67 12.33ZM14.22 12.92L14.22 12.92L14.22 12.92Q14.22 12.70 14.66 12.19L14.66 12.19L14.66 12.19Q15.09 11.68 15.37 11.68L15.37 11.68L15.37 11.68Q15.64 11.68 15.77 11.89L15.77 11.89L15.77 11.89Q15.90 12.10 15.93 12.35L15.93 12.35L15.93 12.35Q15.96 12.60 16.09 12.81L16.09 12.81L16.09 12.81Q16.23 13.02 16.49 13.02L16.49 13.02L16.49 13.02Q16.74 13.02 16.95 12.79L16.95 12.79L16.95 12.79Q17.15 12.56 17.28 12.27L17.28 12.27L17.28 12.27Q17.40 11.98 17.61 11.75L17.61 11.75L17.61 11.75Q17.82 11.52 18.03 11.52L18.03 11.52L18.03 11.52Q18.23 11.52 18.31 11.69L18.31 11.69L18.31 11.69Q19.18 13.55 20.08 13.55L20.08 13.55L20.08 13.55Q20.22 13.55 20.33 13.51L20.33 13.51L20.33 13.51Q20.44 13.47 20.50 13.47L20.50 13.47L20.50 13.47Q20.66 13.47 20.66 13.73L20.66 13.73L20.66 13.73Q20.66 14.21 20.17 14.59L20.17 14.59L20.17 14.59Q19.67 14.97 19.15 14.97L19.15 14.97L19.15 14.97Q18.63 14.97 18.28 14.63L18.28 14.63L18.28 14.63Q17.92 14.29 17.79 13.94L17.79 13.94L17.79 13.94Q17.65 13.58 17.59 13.24L17.59 13.24L17.59 13.24Q17.53 12.91 17.46 12.91L17.46 12.91L17.46 12.91Q17.35 12.91 17.02 13.35L17.02 13.35L17.02 13.35Q16.69 13.79 16.28 14.24L16.28 14.24L16.28 14.24Q15.86 14.69 15.54 14.69L15.54 14.69L15.54 14.69Q15.20 14.64 15.01 14.36L15.01 14.36L15.01 14.36Q14.81 14.07 14.76 13.76L14.76 13.76L14.76 13.76Q14.63 12.92 14.22 12.92ZM20.44 12.92L20.44 12.92L20.44 12.92Q20.44 12.70 20.87 12.19L20.87 12.19L20.87 12.19Q21.31 11.68 21.58 11.68L21.58 11.68L21.58 11.68Q21.85 11.68 21.99 11.89L21.99 11.89L21.99 11.89Q22.12 12.10 22.15 12.35L22.15 12.35L22.15 12.35Q22.18 12.60 22.31 12.81L22.31 12.81L22.31 12.81Q22.44 13.02 22.70 13.02L22.70 13.02L22.70 13.02Q22.96 13.02 23.16 12.79L23.16 12.79L23.16 12.79Q23.37 12.56 23.49 12.27L23.49 12.27L23.49 12.27Q23.62 11.98 23.83 11.75L23.83 11.75L23.83 11.75Q24.04 11.52 24.24 11.52L24.24 11.52L24.24 11.52Q24.44 11.52 24.53 11.69L24.53 11.69L24.53 11.69Q25.40 13.55 26.29 13.55L26.29 13.55L26.29 13.55Q26.43 13.55 26.54 13.51L26.54 13.51L26.54 13.51Q26.66 13.47 26.71 13.47L26.71 13.47L26.71 13.47Q26.88 13.47 26.88 13.73L26.88 13.73L26.88 13.73Q26.88 14.21 26.38 14.59L26.38 14.59L26.38 14.59Q25.89 14.97 25.37 14.97L25.37 14.97L25.37 14.97Q24.85 14.97 24.49 14.63L24.49 14.63L24.49 14.63Q24.14 14.29 24.00 13.94L24.00 13.94L24.00 13.94Q23.87 13.58 23.81 13.24L23.81 13.24L23.81 13.24Q23.74 12.91 23.67 12.91L23.67 12.91L23.67 12.91Q23.56 12.91 23.23 13.35L23.23 13.35L23.23 13.35Q22.90 13.79 22.49 14.24L22.49 14.24L22.49 14.24Q22.08 14.69 21.76 14.69L21.76 14.69L21.76 14.69Q21.42 14.64 21.22 14.36L21.22 14.36L21.22 14.36Q21.03 14.07 20.97 13.76L20.97 13.76L20.97 13.76Q20.85 12.92 20.44 12.92ZM29.72 18.33L29.72 18.33L29.72 18.33Q30.06 18.33 30.06 15.55L30.06 15.55L30.06 15.55Q30.06 14.97 30.04 14.69L30.04 14.69L30.04 14.69Q29.16 15.88 29.16 16.83L29.16 16.83L29.16 16.83Q29.16 17.37 29.30 17.85L29.30 17.85L29.30 17.85Q29.43 18.33 29.72 18.33ZM27.51 11.06L27.51 11.06L27.45 11.62L27.45 11.62Q27.45 12.22 27.85 12.63L27.85 12.63L27.85 12.63Q28.25 13.05 28.83 13.06L28.83 13.06L28.83 13.06Q29.18 13.05 29.48 12.86L29.48 12.86L29.48 12.86Q29.78 12.67 29.90 12.50L29.90 12.50L30.02 12.32L30.02 12.32Q30.03 11.84 30.16 11.52L30.16 11.52L30.16 11.52Q30.35 10.98 30.62 10.98L30.62 10.98L30.66 10.98L30.66 10.98Q30.81 11.03 30.81 11.42L30.81 11.42L30.81 11.42Q30.81 11.59 30.49 12.08L30.49 12.08L30.38 12.26L30.38 12.26Q30.38 13.34 30.39 13.86L30.39 13.86L30.39 13.86Q31.21 13.09 31.60 12.60L31.60 12.60L31.60 12.60Q31.78 12.46 31.89 12.46L31.89 12.46L31.89 12.46Q31.99 12.46 31.99 12.56L31.99 12.56L31.99 12.56Q31.99 12.67 31.81 12.82L31.81 12.82L31.81 12.82Q31.39 13.16 30.41 14.24L30.41 14.24L30.45 16.38L30.45 16.38Q30.45 18.12 30.21 19.01L30.21 19.01L30.21 19.01Q29.97 19.91 29.32 19.91L29.32 19.91L29.32 19.91Q28.78 19.91 28.43 19.36L28.43 19.36L28.43 19.36Q28.08 18.82 28.08 18.17L28.08 18.17L28.08 18.17Q28.08 16.94 28.60 16.04L28.60 16.04L28.60 16.04Q29.11 15.13 30.04 14.21L30.04 14.21L30.04 14.21Q30.02 13.20 30.02 13.10L30.02 13.10L30.02 13.10Q30.02 13.01 29.94 13.01L29.94 13.01L29.94 13.01Q29.86 13.01 29.76 13.15L29.76 13.15L29.76 13.15Q29.27 13.66 29.05 13.87L29.05 13.87L29.05 13.87Q28.45 14.46 27.84 14.46L27.84 14.46L27.84 14.46Q27.23 14.46 26.87 14.06L26.87 14.06L26.87 14.06Q26.52 13.65 26.52 12.90L26.52 12.90L26.52 12.90Q26.52 12.15 26.80 11.53L26.80 11.53L26.80 11.53Q27.09 10.91 27.34 10.91L27.34 10.91L27.34 10.91Q27.51 10.91 27.51 11.06ZM41.10 13.52L41.10 13.52L40.85 13.57L40.85 13.57Q40.07 13.57 39.59 12.42L39.59 12.42L39.59 12.42Q39.10 11.28 39.10 9.51L39.10 9.51L39.10 9.51Q39.10 7.74 39.49 5.77L39.49 5.77L39.49 5.77Q39.49 5.66 39.35 5.66L39.35 5.66L39.35 5.66Q39.00 5.68 38.91 5.87L38.91 5.87L38.91 5.87Q38.81 6.06 38.58 6.83L38.58 6.83L38.58 6.83Q38.36 7.60 38.10 9.00L38.10 9.00L38.10 9.00Q37.84 10.40 37.84 11.83L37.84 11.83L37.84 11.83Q37.84 13.26 38.20 14.10L38.20 14.10L38.20 14.10Q38.56 14.94 39.44 14.94L39.44 14.94L39.44 14.94Q40.03 14.94 40.65 14.55L40.65 14.55L40.65 14.55Q41.27 14.17 41.27 13.73L41.27 13.73L41.27 13.73Q41.27 13.52 41.10 13.52ZM34.97 5.24L34.97 5.24L34.97 5.24Q36.51 4.41 39.07 3.71L39.07 3.71L39.07 3.71Q41.64 3.01 43.57 2.91L43.57 2.91L43.57 2.91Q43.88 2.95 43.88 3.23L43.88 3.23L43.88 3.23Q43.88 3.50 43.72 3.93L43.72 3.93L43.72 3.93Q43.55 4.37 43.30 4.38L43.30 4.38L43.30 4.38Q41.99 4.47 38.98 5.25L38.98 5.25L38.98 5.25Q35.98 6.03 34.78 6.90L34.78 6.90L34.78 6.90Q34.69 6.94 34.62 6.94L34.62 6.94L34.62 6.94Q34.50 6.94 34.50 6.71L34.50 6.71L34.50 6.71Q34.50 6.47 34.69 5.88L34.69 5.88L34.69 5.88Q34.87 5.29 34.97 5.24ZM42.98 12.52L42.98 12.52Q43.22 12.43 43.46 11.98L43.46 11.98L43.46 11.98Q43.71 11.52 43.71 11.23L43.71 11.23L43.71 11.23Q43.71 10.93 43.48 10.92L43.48 10.92L43.48 10.92Q43.15 10.92 43.01 11.22L43.01 11.22L43.01 11.22Q42.87 11.52 42.87 11.88L42.87 11.88L42.87 11.88Q42.87 12.24 42.98 12.52L42.98 12.52ZM44.18 13.43L44.18 13.43L44.18 13.43Q44.58 13.43 44.84 13.25L44.84 13.25L44.84 13.25Q45.09 13.08 45.33 12.80L45.33 12.80L45.33 12.80Q45.56 12.52 45.69 12.52L45.69 12.52L45.69 12.52Q45.82 12.52 45.82 12.64L45.82 12.64L45.82 12.64Q45.82 12.73 45.77 12.84L45.77 12.84L45.77 12.84Q45.30 13.58 44.62 14.15L44.62 14.15L44.62 14.15Q43.93 14.71 43.16 14.71L43.16 14.71L43.16 14.71Q42.39 14.71 42.05 14.34L42.05 14.34L42.05 14.34Q41.71 13.97 41.71 13.36L41.71 13.36L41.71 13.36Q41.71 12.29 42.50 11.18L42.50 11.18L42.50 11.18Q43.30 10.07 44.16 10.07L44.16 10.07L44.16 10.07Q44.60 10.07 44.60 10.43L44.60 10.43L44.60 10.43Q44.60 10.92 44.30 11.45L44.30 11.45L44.30 11.45Q43.99 11.97 43.16 12.87L43.16 12.87L43.16 12.87Q43.54 13.43 44.18 13.43ZM46.44 12.31L46.44 12.31L46.44 12.31Q46.44 12.81 46.73 13.15L46.73 13.15L46.73 13.15Q47.03 13.50 47.51 13.50L47.51 13.50L47.51 13.50Q47.99 13.50 48.31 13.38L48.31 13.38L48.31 13.38Q48.62 13.26 48.79 13.14L48.79 13.14L48.79 13.14Q48.96 13.02 49.04 13.02L49.04 13.02L49.04 13.02Q49.17 13.02 49.17 13.15L49.17 13.15L49.17 13.15Q49.17 13.58 48.36 14.17L48.36 14.17L48.36 14.17Q47.54 14.77 46.47 14.77L46.47 14.77L46.47 14.77Q45.78 14.77 45.44 14.43L45.44 14.43L45.44 14.43Q45.09 14.08 45.09 13.52L45.09 13.52L45.09 13.52Q45.09 12.52 45.96 11.51L45.96 11.51L45.96 11.51Q46.82 10.51 47.94 10.51L47.94 10.51L47.94 10.51Q48.20 10.51 48.36 10.67L48.36 10.67L48.36 10.67Q48.52 10.84 48.52 11.14L48.52 11.14L48.52 11.14Q48.52 11.44 48.18 11.81L48.18 11.81L48.18 11.81Q47.84 12.18 47.49 12.18L47.49 12.18L47.49 12.18Q47.39 12.18 47.39 12.08L47.39 12.08L47.39 12.08Q47.39 11.98 47.50 11.87L47.50 11.87L47.50 11.87Q47.60 11.76 47.60 11.60L47.60 11.60L47.60 11.60Q47.60 11.44 47.50 11.28L47.50 11.28L47.50 11.28Q47.39 11.13 47.26 11.13L47.26 11.13L47.26 11.13Q46.89 11.13 46.66 11.47L46.66 11.47L46.66 11.47Q46.44 11.82 46.44 12.31ZM50.41 6.19L50.41 6.19L50.41 6.19Q49.84 6.19 49.84 9.98L49.84 9.98L49.84 10.82L49.84 10.82Q50.20 9.90 50.52 8.78L50.52 8.78L50.52 8.78Q50.83 7.66 50.83 6.92L50.83 6.92L50.83 6.92Q50.83 6.19 50.41 6.19ZM49.98 13.44L49.98 13.44L49.98 13.44Q50.12 13.44 50.79 12.52L50.79 12.52L50.79 12.52Q51.46 11.59 51.65 11.58L51.65 11.58L51.65 11.58Q51.83 11.58 52.01 11.89L52.01 11.89L52.01 11.89Q52.19 12.19 52.37 12.56L52.37 12.56L52.37 12.56Q52.54 12.94 52.93 13.25L52.93 13.25L52.93 13.25Q53.33 13.57 53.72 13.57L53.72 13.57L53.72 13.57Q54.11 13.57 54.19 13.51L54.19 13.51L54.19 13.51Q54.28 13.45 54.33 13.45L54.33 13.45L54.33 13.45Q54.38 13.45 54.38 13.57L54.38 13.57L54.38 13.57Q54.36 13.85 53.93 14.24L53.93 14.24L53.93 14.24Q53.49 14.64 52.78 14.64L52.78 14.64L52.78 14.64Q51.58 14.64 51.10 13.26L51.10 13.26L51.10 13.26Q51.06 13.17 51.02 13.17L51.02 13.17L51.02 13.17Q50.99 13.17 50.92 13.23L50.92 13.23L50.92 13.23Q50.85 13.29 50.62 13.55L50.62 13.55L50.62 13.55Q50.40 13.82 50.17 14.10L50.17 14.10L50.17 14.10Q49.94 14.38 49.88 14.43L49.88 14.43L49.88 14.43Q49.83 14.49 49.67 14.49L49.67 14.49L49.67 14.49Q49.52 14.49 49.50 14.32L49.50 14.32L49.50 14.32Q49.38 13.06 49.38 11.68L49.38 11.68L49.38 11.68Q49.38 10.30 49.41 9.55L49.41 9.55L49.41 9.55Q49.45 8.79 49.56 7.60L49.56 7.60L49.56 7.60Q49.67 6.41 49.96 5.66L49.96 5.66L49.96 5.66Q50.25 4.90 50.68 4.90L50.68 4.90L50.68 4.90Q51.59 4.90 51.59 6.17L51.59 6.17L51.59 6.17Q51.59 7.27 51.00 8.92L51.00 8.92L51.00 8.92Q50.41 10.58 49.87 11.55L49.87 11.55L49.87 11.55Q49.92 13.44 49.98 13.44Z"></path></g><defs data-v-fde0c5aa=""><linearGradient data-v-fde0c5aa="" gradientTransform="rotate(25)" id="4168a68e-14ce-4fe6-a83c-73fba269ca0f" x1="0%" y1="0%" x2="100%" y2="0%"><stop data-v-fde0c5aa="" offset="0%" stop-color="#2F4B8E" stop-opacity="1"></stop><stop data-v-fde0c5aa="" offset="100%" stop-color="#6C6825" stop-opacity="1"></stop></linearGradient></defs><g data-v-fde0c5aa="" id="2ad1c4ed-93ff-413c-9c15-60c651495883" stroke="none" fill="url(#4168a68e-14ce-4fe6-a83c-73fba269ca0f)" transform="matrix(0.2044218480592923,0,0,0.2044218480592923,97.66360410387476,37.751359671347785)"><path d="M241.4 58.8c3.3 0 6-2.7 6-6V17c0-3.3-2.7-6-6-6s-6 2.7-6 6v35.8c0 3.3 2.7 6 6 6zM366 187.7c0 3.3 2.7 6 6 6h35.8c3.3 0 6-2.7 6-6s-2.7-6-6-6H372c-3.3 0-6 2.7-6 6zM102.2 181.7H66.4c-3.3 0-6 2.7-6 6s2.7 6 6 6h35.8c3.3 0 6-2.7 6-6s-2.7-6-6-6zM335.1 95.7c1.6 0 3.1-.6 4.2-1.8l28-28c2.3-2.4 2.3-6.2-.1-8.5-2.3-2.3-6-2.3-8.4 0l-28 28c-2.3 2.3-2.3 6.1 0 8.5 1.2 1.2 2.7 1.8 4.3 1.8zM106.9 66l28 28c2.3 2.4 6.1 2.4 8.5.1 2.4-2.3 2.4-6.1.1-8.5l-.1-.1-28-28c-2.3-2.4-6.1-2.4-8.5-.1-2.4 2.4-2.4 6.2 0 8.6z"></path><circle cx="275.3" cy="402.7" r="6.1"></circle><circle cx="356.6" cy="324.5" r="6.1"></circle><path d="M190.7 403.8v1.7c0 6.6 5.3 11.9 11.9 11.9h34.8c-.7-4.5-1.2-9.1-1.4-13.6h-45.3zM397.9 370.5c0-3.3-2.7-6.1-6.1-6.1-3.3 0-6.1 2.7-6.1 6.1 0 3.3 2.7 6.1 6.1 6.1 3.4 0 6.1-2.8 6.1-6.1zM190.7 366.2h14.6c3.3 0 6 2.7 6 6s-2.7 6-6 6h-14.6v13.6h45.5c.3-4.6.9-9.1 1.7-13.6h-14.1c-3.3 0-6-2.7-6-6s2.7-6 6-6h17c1.3-4.4 2.9-8.6 4.7-12.8h-54.9v12.8zM299.2 297.2c3.8-5.6 8.3-10.8 13.2-15.4 44.6-41.6 47.1-111.5 5.5-156.1-41.6-44.6-111.5-47.1-156.1-5.5-44.6 41.6-47.1 111.5-5.5 156.1 2 2.1 4 4.1 6.1 6.1 16.6 15.3 26.6 36.5 28.1 59h61.2c11.3-19 27.7-34.3 47.5-44.2z"></path><path d="M431.5 338.4c-19.2-25.8-49.5-41.1-81.7-41.1-56.2 0-101.8 45.5-101.8 101.8 0 32.4 15.4 62.9 41.6 82.1v-32.3l-16.5-6.6c-2.3-.9-3.8-3.1-3.8-5.6v-17.1c-9.4-3.3-14.3-13.6-11-23 3.3-9.4 13.6-14.3 23-11 9.4 3.3 14.3 13.6 11 23-1.8 5.2-5.9 9.2-11 11v13l16.5 6.6c2.3.9 3.8 3.1 3.8 5.6v44c5.8 3.1 11.8 5.7 18.1 7.6V411l-16.5-16.5c-1.1-1.1-1.8-2.6-1.8-4.2v-11.9c-9.4-3.3-14.3-13.6-11-23 3.3-9.4 13.6-14.3 23-11 9.4 3.3 14.3 13.6 11 23-1.8 5.2-5.9 9.2-11 11v9.4l16.5 16.5c1.1 1.1 1.8 2.7 1.8 4.2v90.9c1.9.3 3.8.6 5.8.9v-66.7c0-1.6.6-3.1 1.8-4.2l11.4-11.4v-76.5c-9.4-3.3-14.3-13.6-11-23 3.3-9.4 13.6-14.3 23-11 9.4 3.3 14.3 13.6 11 23-1.8 5.2-5.9 9.2-11 11v79c0 1.6-.6 3.1-1.8 4.2l-11.4 11.4V501h.3c4.8 0 9.6-.3 14.4-1v-51.1c0-1.3.4-2.5 1.2-3.5l20.5-28.1v-29.7c-9.4-3.3-14.3-13.6-11-23 3.3-9.4 13.6-14.3 23-11 9.4 3.3 14.3 13.6 11 23-1.8 5.2-5.9 9.2-11 11v31.6c0 1.3-.4 2.5-1.2 3.5l-20.5 28.1v46.7c7.8-2.1 15.3-5.1 22.3-9v-22.8c0-1.6.7-3.2 1.9-4.4l13.8-13.1v-9c-9.4-3.3-14.3-13.6-11-23 3.3-9.4 13.6-14.3 23-11 9.4 3.3 14.3 13.6 11 23-1.8 5.2-5.9 9.2-11 11v11.5c0 1.6-.7 3.2-1.9 4.4l-13.8 13.1v12.5c45.2-33.4 54.6-97.2 21-142.3z"></path><circle cx="420.2" cy="422.3" r="6.1"></circle><path d="M313.4 361.3c0-3.3-2.7-6.1-6.1-6.1-3.3 0-6.1 2.7-6.1 6.1 0 3.3 2.7 6.1 6.1 6.1 3.4 0 6.1-2.7 6.1-6.1z"></path></g><defs data-v-fde0c5aa=""><!----></defs><g data-v-fde0c5aa="" id="fae85b34-a905-497b-aaa8-fba9fd67aaea" fill="#338EDD" transform="matrix(0.40412897053817864,0,0,0.40412897053817864,44.72845139798933,253.37632641954002)"><path d="M10.95 7.63L10.95 7.63L10.95 7.63Q10.95 8.40 10.56 9.10L10.56 9.10L10.56 9.10Q10.18 9.80 9.53 10.32L9.53 10.32L9.53 10.32Q8.88 10.85 8.00 11.16L8.00 11.16L8.00 11.16Q7.13 11.47 6.15 11.47L6.15 11.47L6.15 11.47Q5.80 11.47 5.59 11.38L5.59 11.38L5.59 11.38Q5.39 11.28 5.14 11.02L5.14 11.02L5.14 11.02Q4.44 12.54 4.00 13.82L4.00 13.82L4.00 13.82Q3.56 15.11 3.30 16.31L3.30 16.31L3.30 16.31Q2.77 16.18 2.44 15.87L2.44 15.87L2.44 15.87Q2.10 15.55 1.82 15.08L1.82 15.08L1.82 15.08Q1.96 14.81 2.16 14.38L2.16 14.38L2.16 14.38Q2.35 13.94 2.63 13.31L2.63 13.31L2.63 13.31Q2.91 12.67 3.28 11.78L3.28 11.78L3.28 11.78Q3.65 10.89 4.16 9.70L4.16 9.70L4.16 9.70Q4.38 9.16 4.55 8.75L4.55 8.75L4.55 8.75Q4.72 8.34 4.84 7.99L4.84 7.99L4.84 7.99Q4.97 7.63 5.08 7.28L5.08 7.28L5.08 7.28Q5.18 6.93 5.29 6.51L5.29 6.51L5.29 6.51Q4.63 6.72 4.08 7L4.08 7L4.08 7Q3.53 7.28 3.16 7.59L3.16 7.59L3.16 7.59Q3.04 7.50 2.91 7.34L2.91 7.34L2.91 7.34Q2.77 7.17 2.66 6.96L2.66 6.96L2.66 6.96Q2.55 6.76 2.46 6.55L2.46 6.55L2.46 6.55Q2.38 6.34 2.37 6.17L2.37 6.17L2.37 6.17Q2.77 5.89 3.37 5.66L3.37 5.66L3.37 5.66Q3.98 5.42 4.66 5.24L4.66 5.24L4.66 5.24Q5.35 5.07 6.08 4.97L6.08 4.97L6.08 4.97Q6.82 4.87 7.49 4.87L7.49 4.87L7.49 4.87Q8.29 4.87 8.93 5.07L8.93 5.07L8.93 5.07Q9.58 5.28 10.02 5.64L10.02 5.64L10.02 5.64Q10.47 6.01 10.71 6.51L10.71 6.51L10.71 6.51Q10.95 7.01 10.95 7.63ZM8.46 5.95L8.46 5.95L8.46 5.95Q7.92 5.95 7.36 6.03L7.36 6.03L7.53 6.29L7.53 6.29Q7.39 6.47 7.18 6.83L7.18 6.83L7.18 6.83Q6.97 7.20 6.72 7.71L6.72 7.71L6.72 7.71Q6.47 8.22 6.17 8.85L6.17 8.85L6.17 8.85Q5.87 9.48 5.53 10.18L5.53 10.18L5.53 10.18Q6.62 10.18 7.52 9.97L7.52 9.97L7.52 9.97Q8.41 9.77 9.05 9.41L9.05 9.41L9.05 9.41Q9.69 9.06 10.04 8.58L10.04 8.58L10.04 8.58Q10.40 8.11 10.40 7.56L10.40 7.56L10.40 7.56Q10.40 6.83 9.91 6.39L9.91 6.39L9.91 6.39Q9.42 5.95 8.46 5.95ZM26.92 7.46L26.92 7.46L26.92 7.46Q26.92 8.13 26.62 8.73L26.62 8.73L26.62 8.73Q26.32 9.32 25.79 9.79L25.79 9.79L25.79 9.79Q25.26 10.26 24.54 10.58L24.54 10.58L24.54 10.58Q23.83 10.91 22.99 11.02L22.99 11.02L22.99 11.02Q23.20 11.65 23.50 12.31L23.50 12.31L23.50 12.31Q23.80 12.98 24.15 13.59L24.15 13.59L24.15 13.59Q24.50 14.21 24.88 14.73L24.88 14.73L24.88 14.73Q25.26 15.25 25.62 15.58L25.62 15.58L25.62 15.58Q25.55 15.72 25.42 15.86L25.42 15.86L25.42 15.86Q25.28 16.00 25.11 16.12L25.11 16.12L25.11 16.12Q24.93 16.24 24.74 16.32L24.74 16.32L24.74 16.32Q24.56 16.39 24.39 16.39L24.39 16.39L24.39 16.39Q24.08 16.39 23.80 16.10L23.80 16.10L23.80 16.10Q23.52 15.81 23.23 15.17L23.23 15.17L23.23 15.17Q22.95 14.53 22.63 13.52L22.63 13.52L22.63 13.52Q22.32 12.50 21.94 11.07L21.94 11.07L21.94 11.07Q21.78 11.07 21.63 11.07L21.63 11.07L21.63 11.07Q21.48 11.07 21.39 11.05L21.39 11.05L21.39 11.05Q21.29 10.99 21.18 10.85L21.18 10.85L21.18 10.85Q20.80 11.66 20.51 12.38L20.51 12.38L20.51 12.38Q20.22 13.09 19.98 13.76L19.98 13.76L19.98 13.76Q19.75 14.42 19.58 15.04L19.58 15.04L19.58 15.04Q19.40 15.67 19.28 16.31L19.28 16.31L19.28 16.31Q18.80 16.20 18.45 15.90L18.45 15.90L18.45 15.90Q18.10 15.61 17.79 15.08L17.79 15.08L17.79 15.08Q17.85 14.95 17.91 14.83L17.91 14.83L17.91 14.83Q17.98 14.71 18.07 14.50L18.07 14.50L18.07 14.50Q18.17 14.28 18.32 13.94L18.32 13.94L18.32 13.94Q18.47 13.61 18.71 13.05L18.71 13.05L18.71 13.05Q18.96 12.49 19.30 11.68L19.30 11.68L19.30 11.68Q19.64 10.86 20.13 9.70L20.13 9.70L20.13 9.70Q20.36 9.18 20.52 8.79L20.52 8.79L20.52 8.79Q20.68 8.40 20.80 8.04L20.80 8.04L20.80 8.04Q20.93 7.69 21.04 7.33L21.04 7.33L21.04 7.33Q21.14 6.97 21.25 6.51L21.25 6.51L21.25 6.51Q20.61 6.73 20.05 7.01L20.05 7.01L20.05 7.01Q19.50 7.28 19.14 7.59L19.14 7.59L19.14 7.59Q19.01 7.50 18.88 7.34L18.88 7.34L18.88 7.34Q18.75 7.17 18.63 6.96L18.63 6.96L18.63 6.96Q18.52 6.76 18.44 6.55L18.44 6.55L18.44 6.55Q18.35 6.34 18.34 6.17L18.34 6.17L18.34 6.17Q18.76 5.89 19.37 5.66L19.37 5.66L19.37 5.66Q19.98 5.42 20.66 5.24L20.66 5.24L20.66 5.24Q21.35 5.07 22.06 4.97L22.06 4.97L22.06 4.97Q22.78 4.87 23.39 4.87L23.39 4.87L23.39 4.87Q25.07 4.87 26.00 5.56L26.00 5.56L26.00 5.56Q26.92 6.26 26.92 7.46ZM23.34 6.02L23.51 6.29L23.51 6.29Q23.41 6.41 23.20 6.79L23.20 6.79L23.20 6.79Q22.99 7.17 22.71 7.69L22.71 7.69L22.71 7.69Q22.44 8.22 22.14 8.83L22.14 8.83L22.14 8.83Q21.84 9.45 21.56 10.05L21.56 10.05L21.56 10.05Q22.61 10.05 23.49 9.86L23.49 9.86L23.49 9.86Q24.37 9.66 25.02 9.30L25.02 9.30L25.02 9.30Q25.66 8.95 26.02 8.46L26.02 8.46L26.02 8.46Q26.38 7.98 26.38 7.39L26.38 7.39L26.38 7.39Q26.38 6.69 25.87 6.32L25.87 6.32L25.87 6.32Q25.37 5.95 24.32 5.95L24.32 5.95L24.32 5.95Q24.08 5.95 23.84 5.97L23.84 5.97L23.84 5.97Q23.60 5.99 23.34 6.02L23.34 6.02ZM40.42 4.98L40.42 4.98L40.42 4.98Q40.68 5.10 40.96 5.27L40.96 5.27L40.96 5.27Q41.24 5.45 41.48 5.63L41.48 5.63L41.48 5.63Q41.72 5.81 41.88 5.98L41.88 5.98L41.88 5.98Q42.04 6.16 42.06 6.27L42.06 6.27L42.06 6.27Q41.82 6.22 41.58 6.20L41.58 6.20L41.58 6.20Q41.34 6.17 41.15 6.17L41.15 6.17L41.15 6.17Q40.52 6.17 39.89 6.48L39.89 6.48L39.89 6.48Q39.27 6.79 38.71 7.32L38.71 7.32L38.71 7.32Q38.15 7.85 37.67 8.57L37.67 8.57L37.67 8.57Q37.20 9.28 36.85 10.09L36.85 10.09L36.85 10.09Q36.51 10.91 36.32 11.77L36.32 11.77L36.32 11.77Q36.12 12.64 36.12 13.48L36.12 13.48L36.12 13.48Q36.12 14.57 36.48 15.11L36.48 15.11L36.48 15.11Q36.85 15.64 37.55 15.64L37.55 15.64L37.55 15.64Q37.88 15.64 38.28 15.51L38.28 15.51L38.28 15.51Q38.67 15.37 39.07 15.13L39.07 15.13L39.07 15.13Q39.48 14.90 39.87 14.56L39.87 14.56L39.87 14.56Q40.26 14.22 40.60 13.82L40.60 13.82L40.60 13.82Q41.09 13.23 41.48 12.48L41.48 12.48L41.48 12.48Q41.87 11.73 42.15 10.89L42.15 10.89L42.15 10.89Q42.42 10.05 42.57 9.16L42.57 9.16L42.57 9.16Q42.71 8.27 42.71 7.42L42.71 7.42L42.71 7.42Q42.71 7.08 42.70 6.85L42.70 6.85L42.70 6.85Q42.69 6.62 42.66 6.46L42.66 6.46L42.66 6.46Q42.64 6.30 42.63 6.20L42.63 6.20L42.63 6.20Q42.62 6.10 42.60 6.03L42.60 6.03L42.60 6.03Q42.77 6.12 42.97 6.24L42.97 6.24L42.97 6.24Q43.18 6.36 43.35 6.59L43.35 6.59L43.35 6.59Q43.53 6.82 43.64 7.20L43.64 7.20L43.64 7.20Q43.76 7.57 43.76 8.18L43.76 8.18L43.76 8.18Q43.76 9.16 43.53 10.10L43.53 10.10L43.53 10.10Q43.30 11.05 42.89 11.90L42.89 11.90L42.89 11.90Q42.48 12.75 41.92 13.50L41.92 13.50L41.92 13.50Q41.36 14.24 40.71 14.80L40.71 14.80L40.71 14.80Q39.87 15.54 38.92 15.95L38.92 15.95L38.92 15.95Q37.97 16.35 37.09 16.35L37.09 16.35L37.09 16.35Q35.80 16.35 35.12 15.53L35.12 15.53L35.12 15.53Q34.44 14.71 34.44 13.12L34.44 13.12L34.44 13.12Q34.44 12.26 34.63 11.31L34.63 11.31L34.63 11.31Q34.82 10.36 35.16 9.44L35.16 9.44L35.16 9.44Q35.50 8.51 35.98 7.68L35.98 7.68L35.98 7.68Q36.46 6.85 37.02 6.21L37.02 6.21L37.02 6.21Q37.59 5.57 38.24 5.19L38.24 5.19L38.24 5.19Q38.89 4.82 39.58 4.82L39.58 4.82L39.58 4.82Q39.80 4.82 40.00 4.85L40.00 4.85L40.00 4.85Q40.19 4.89 40.42 4.98ZM56.87 16.21L56.87 16.21L56.87 16.21Q56.84 16.23 56.81 16.23L56.81 16.23L56.81 16.23Q56.78 16.23 56.70 16.23L56.70 16.23L56.70 16.23Q56.50 16.23 56.24 16.16L56.24 16.16L56.24 16.16Q55.99 16.10 55.74 16.01L55.74 16.01L55.74 16.01Q55.50 15.92 55.32 15.81L55.32 15.81L55.32 15.81Q55.15 15.69 55.10 15.61L55.10 15.61L55.10 15.61Q55.09 15.41 55.09 15.20L55.09 15.20L55.09 15.20Q55.09 14.99 55.09 14.80L55.09 14.80L55.09 14.80Q55.09 13.23 55.32 11.52L55.32 11.52L55.32 11.52Q55.55 9.81 56.08 7.83L56.08 7.83L56.08 7.83Q56.14 7.63 56.20 7.33L56.20 7.33L56.20 7.33Q56.27 7.03 56.34 6.68L56.34 6.68L56.34 6.68Q56 6.94 55.54 7.53L55.54 7.53L55.54 7.53Q55.08 8.11 54.56 8.90L54.56 8.90L54.56 8.90Q54.05 9.69 53.54 10.63L53.54 10.63L53.54 10.63Q53.03 11.58 52.61 12.55L52.61 12.55L52.61 12.55Q52.19 13.52 51.89 14.48L51.89 14.48L51.89 14.48Q51.59 15.43 51.52 16.24L51.52 16.24L51.52 16.24Q50.85 16.04 50.59 15.85L50.59 15.85L50.59 15.85Q50.33 15.65 50.33 15.37L50.33 15.37L50.33 15.37Q50.33 15.12 50.48 14.66L50.48 14.66L50.48 14.66Q50.64 14.20 50.92 13.57L50.92 13.57L50.92 13.57Q51.20 12.94 51.60 12.16L51.60 12.16L51.60 12.16Q52.01 11.38 52.50 10.49L52.50 10.49L52.50 10.49Q53.06 9.46 53.60 8.57L53.60 8.57L53.60 8.57Q54.14 7.67 54.66 6.94L54.66 6.94L54.66 6.94Q55.17 6.22 55.67 5.68L55.67 5.68L55.67 5.68Q56.17 5.15 56.66 4.87L56.66 4.87L56.66 4.87Q56.85 4.87 57.18 4.97L57.18 4.97L57.18 4.97Q57.51 5.07 57.83 5.21L57.83 5.21L57.83 5.21Q58.14 5.35 58.39 5.49L58.39 5.49L58.39 5.49Q58.63 5.64 58.66 5.74L58.66 5.74L58.66 5.74Q58.46 6.13 58.20 6.92L58.20 6.92L58.20 6.92Q57.93 7.70 57.66 8.69L57.66 8.69L57.66 8.69Q57.39 9.69 57.14 10.80L57.14 10.80L57.14 10.80Q56.90 11.91 56.76 12.94L56.76 12.94L56.76 12.94Q57.08 12.17 57.50 11.33L57.50 11.33L57.50 11.33Q57.93 10.50 58.41 9.68L58.41 9.68L58.41 9.68Q58.88 8.86 59.38 8.09L59.38 8.09L59.38 8.09Q59.88 7.32 60.35 6.69L60.35 6.69L60.35 6.69Q60.83 6.05 61.24 5.57L61.24 5.57L61.24 5.57Q61.66 5.10 61.98 4.87L61.98 4.87L61.98 4.87Q62.17 4.87 62.50 4.97L62.50 4.97L62.50 4.97Q62.83 5.07 63.15 5.21L63.15 5.21L63.15 5.21Q63.46 5.35 63.71 5.49L63.71 5.49L63.71 5.49Q63.95 5.64 63.98 5.74L63.98 5.74L63.98 5.74Q63.53 6.54 63.20 7.69L63.20 7.69L63.20 7.69Q62.86 8.83 62.63 10.09L62.63 10.09L62.63 10.09Q62.40 11.35 62.28 12.59L62.28 12.59L62.28 12.59Q62.16 13.83 62.16 14.81L62.16 14.81L62.16 14.81Q62.16 15.13 62.16 15.48L62.16 15.48L62.16 15.48Q62.16 15.83 62.19 16.21L62.19 16.21L62.19 16.21Q61.99 16.21 61.72 16.16L61.72 16.16L61.72 16.16Q61.45 16.11 61.19 16.03L61.19 16.03L61.19 16.03Q60.93 15.95 60.72 15.84L60.72 15.84L60.72 15.84Q60.51 15.74 60.42 15.61L60.42 15.61L60.42 15.61Q60.41 15.41 60.41 15.20L60.41 15.20L60.41 15.20Q60.41 14.99 60.41 14.80L60.41 14.80L60.41 14.80Q60.41 13.23 60.64 11.52L60.64 11.52L60.64 11.52Q60.87 9.81 61.40 7.83L61.40 7.83L61.40 7.83Q61.46 7.63 61.53 7.29L61.53 7.29L61.53 7.29Q61.60 6.96 61.67 6.59L61.67 6.59L61.67 6.59Q61.28 6.79 60.78 7.34L60.78 7.34L60.78 7.34Q60.28 7.90 59.77 8.69L59.77 8.69L59.77 8.69Q59.26 9.48 58.77 10.44L58.77 10.44L58.77 10.44Q58.27 11.41 57.87 12.41L57.87 12.41L57.87 12.41Q57.47 13.41 57.20 14.40L57.20 14.40L57.20 14.40Q56.92 15.39 56.87 16.21ZM77.56 4.98L77.56 4.98L77.56 4.98Q77.83 5.10 78.11 5.27L78.11 5.27L78.11 5.27Q78.39 5.45 78.62 5.63L78.62 5.63L78.62 5.63Q78.86 5.81 79.02 5.98L79.02 5.98L79.02 5.98Q79.18 6.16 79.20 6.27L79.20 6.27L79.20 6.27Q78.96 6.22 78.72 6.20L78.72 6.20L78.72 6.20Q78.48 6.17 78.29 6.17L78.29 6.17L78.29 6.17Q77.66 6.17 77.04 6.48L77.04 6.48L77.04 6.48Q76.41 6.79 75.85 7.32L75.85 7.32L75.85 7.32Q75.29 7.85 74.82 8.57L74.82 8.57L74.82 8.57Q74.34 9.28 74.00 10.09L74.00 10.09L74.00 10.09Q73.65 10.91 73.46 11.77L73.46 11.77L73.46 11.77Q73.26 12.64 73.26 13.48L73.26 13.48L73.26 13.48Q73.26 14.57 73.63 15.11L73.63 15.11L73.63 15.11Q73.99 15.64 74.69 15.64L74.69 15.64L74.69 15.64Q75.03 15.64 75.42 15.51L75.42 15.51L75.42 15.51Q75.81 15.37 76.22 15.13L76.22 15.13L76.22 15.13Q76.62 14.90 77.01 14.56L77.01 14.56L77.01 14.56Q77.41 14.22 77.74 13.82L77.74 13.82L77.74 13.82Q78.23 13.23 78.62 12.48L78.62 12.48L78.62 12.48Q79.02 11.73 79.29 10.89L79.29 10.89L79.29 10.89Q79.56 10.05 79.71 9.16L79.71 9.16L79.71 9.16Q79.86 8.27 79.86 7.42L79.86 7.42L79.86 7.42Q79.86 7.08 79.84 6.85L79.84 6.85L79.84 6.85Q79.83 6.62 79.81 6.46L79.81 6.46L79.81 6.46Q79.79 6.30 79.77 6.20L79.77 6.20L79.77 6.20Q79.76 6.10 79.74 6.03L79.74 6.03L79.74 6.03Q79.91 6.12 80.12 6.24L80.12 6.24L80.12 6.24Q80.32 6.36 80.49 6.59L80.49 6.59L80.49 6.59Q80.67 6.82 80.79 7.20L80.79 7.20L80.79 7.20Q80.91 7.57 80.91 8.18L80.91 8.18L80.91 8.18Q80.91 9.16 80.68 10.10L80.68 10.10L80.68 10.10Q80.44 11.05 80.03 11.90L80.03 11.90L80.03 11.90Q79.62 12.75 79.06 13.50L79.06 13.50L79.06 13.50Q78.50 14.24 77.85 14.80L77.85 14.80L77.85 14.80Q77.01 15.54 76.06 15.95L76.06 15.95L76.06 15.95Q75.11 16.35 74.23 16.35L74.23 16.35L74.23 16.35Q72.94 16.35 72.26 15.53L72.26 15.53L72.26 15.53Q71.58 14.71 71.58 13.12L71.58 13.12L71.58 13.12Q71.58 12.26 71.77 11.31L71.77 11.31L71.77 11.31Q71.96 10.36 72.30 9.44L72.30 9.44L72.30 9.44Q72.65 8.51 73.12 7.68L73.12 7.68L73.12 7.68Q73.60 6.85 74.17 6.21L74.17 6.21L74.17 6.21Q74.73 5.57 75.38 5.19L75.38 5.19L75.38 5.19Q76.03 4.82 76.72 4.82L76.72 4.82L76.72 4.82Q76.94 4.82 77.14 4.85L77.14 4.85L77.14 4.85Q77.34 4.89 77.56 4.98ZM90.33 6.69L90.33 6.69L90.33 6.69Q89.77 6.69 89.47 6.38L89.47 6.38L89.47 6.38Q89.17 6.06 89.17 5.61L89.17 5.61L89.17 5.61Q89.17 5.50 89.20 5.35L89.20 5.35L89.20 5.35Q89.24 5.19 89.29 5.08L89.29 5.08L89.29 5.08Q89.47 5.17 89.83 5.20L89.83 5.20L89.83 5.20Q90.19 5.24 90.66 5.24L90.66 5.24L90.66 5.24Q91.38 5.24 92.28 5.17L92.28 5.17L92.28 5.17Q93.18 5.11 94.01 5.04L94.01 5.04L94.01 5.04Q94.84 4.97 95.47 4.91L95.47 4.91L95.47 4.91Q96.10 4.84 96.28 4.84L96.28 4.84L96.28 4.84Q96.80 4.84 97.03 5.23L97.03 5.23L97.03 5.23Q97.26 5.61 97.37 6.26L97.37 6.26L97.37 6.26Q97.01 6.23 96.65 6.21L96.65 6.21L96.65 6.21Q96.29 6.19 96.04 6.19L96.04 6.19L96.04 6.19Q95.59 6.19 95.14 6.22L95.14 6.22L95.14 6.22Q94.68 6.24 94.22 6.30L94.22 6.30L94.22 6.30Q94.02 6.71 93.79 7.26L93.79 7.26L93.79 7.26Q93.55 7.81 93.32 8.41L93.32 8.41L93.32 8.41Q93.09 9.02 92.88 9.61L92.88 9.61L92.88 9.61Q92.67 10.21 92.51 10.68L92.51 10.68L92.51 10.68Q92.20 11.61 91.97 12.39L91.97 12.39L91.97 12.39Q91.74 13.17 91.57 13.85L91.57 13.85L91.57 13.85Q91.39 14.53 91.27 15.15L91.27 15.15L91.27 15.15Q91.14 15.76 91.04 16.35L91.04 16.35L91.04 16.35Q90.10 16.21 89.47 15.18L89.47 15.18L89.47 15.18Q89.59 14.74 89.75 14.23L89.75 14.23L89.75 14.23Q89.91 13.72 90.13 13.07L90.13 13.07L90.13 13.07Q90.34 12.42 90.64 11.59L90.64 11.59L90.64 11.59Q90.93 10.77 91.31 9.72L91.31 9.72L91.31 9.72Q91.45 9.32 91.60 8.90L91.60 8.90L91.60 8.90Q91.76 8.47 91.90 8.05L91.90 8.05L91.90 8.05Q92.05 7.63 92.17 7.24L92.17 7.24L92.17 7.24Q92.29 6.85 92.37 6.52L92.37 6.52L92.37 6.52Q91.78 6.59 91.26 6.64L91.26 6.64L91.26 6.64Q90.73 6.69 90.33 6.69ZM103.21 14.38L103.21 14.38L103.21 14.38Q103.21 13.87 103.37 13.07L103.37 13.07L103.37 13.07Q103.53 12.26 103.79 11.33L103.79 11.33L103.79 11.33Q104.05 10.40 104.38 9.43L104.38 9.43L104.38 9.43Q104.72 8.46 105.07 7.60L105.07 7.60L105.07 7.60Q105.42 6.75 105.76 6.10L105.76 6.10L105.76 6.10Q106.09 5.46 106.36 5.18L106.36 5.18L106.36 5.18Q106.50 5.19 106.73 5.29L106.73 5.29L106.73 5.29Q106.96 5.38 107.20 5.50L107.20 5.50L107.20 5.50Q107.44 5.63 107.63 5.78L107.63 5.78L107.63 5.78Q107.83 5.92 107.88 6.05L107.88 6.05L107.88 6.05Q107.48 6.41 107.08 7.15L107.08 7.15L107.08 7.15Q106.68 7.88 106.31 8.82L106.31 8.82L106.31 8.82Q105.94 9.76 105.62 10.80L105.62 10.80L105.62 10.80Q105.29 11.84 105.06 12.82L105.06 12.82L105.06 12.82Q104.82 13.80 104.69 14.64L104.69 14.64L104.69 14.64Q104.55 15.48 104.55 16.00L104.55 16.00L104.55 16.00Q104.55 16.24 104.59 16.30L104.59 16.30L104.59 16.30Q104.29 16.28 104.15 16.19L104.15 16.19L104.15 16.19Q104.01 16.10 103.93 16.00L103.93 16.00L103.93 16.00Q103.85 15.89 103.79 15.79L103.79 15.79L103.79 15.79Q103.73 15.68 103.60 15.62L103.60 15.62L103.60 15.62Q103.50 15.58 103.43 15.43L103.43 15.43L103.43 15.43Q103.36 15.27 103.31 15.09L103.31 15.09L103.31 15.09Q103.26 14.90 103.24 14.70L103.24 14.70L103.24 14.70Q103.21 14.50 103.21 14.38ZM115.44 16.24L115.44 16.24L115.44 16.24Q114.65 16.00 114.37 15.79L114.37 15.79L114.37 15.79Q114.09 15.57 114.09 15.19L114.09 15.19L114.09 15.19Q114.09 14.77 114.28 14.01L114.28 14.01L114.28 14.01Q114.48 13.24 114.79 12.31L114.79 12.31L114.79 12.31Q115.11 11.37 115.51 10.35L115.51 10.35L115.51 10.35Q115.92 9.32 116.34 8.39L116.34 8.39L116.34 8.39Q116.76 7.45 117.16 6.67L117.16 6.67L117.16 6.67Q117.56 5.89 117.87 5.46L117.87 5.46L117.77 4.87L117.77 4.87Q117.96 4.87 118.31 4.97L118.31 4.97L118.31 4.97Q118.66 5.07 119.02 5.21L119.02 5.21L119.02 5.21Q119.38 5.35 119.65 5.49L119.65 5.49L119.65 5.49Q119.92 5.64 119.95 5.74L119.95 5.74L119.95 5.74Q119.88 6.08 119.84 6.76L119.84 6.76L119.84 6.76Q119.80 7.43 119.80 8.20L119.80 8.20L119.80 8.20Q119.80 9.73 119.92 11.19L119.92 11.19L119.92 11.19Q120.04 12.66 120.47 14.17L120.47 14.17L120.47 14.17Q120.69 13.05 120.95 11.94L120.95 11.94L120.95 11.94Q121.21 10.82 121.49 9.81L121.49 9.81L121.49 9.81Q121.77 8.79 122.05 7.92L122.05 7.92L122.05 7.92Q122.33 7.06 122.59 6.40L122.59 6.40L122.59 6.40Q122.85 5.75 123.07 5.38L123.07 5.38L123.07 5.38Q123.30 5.01 123.48 4.98L123.48 4.98L123.48 4.98Q123.63 5.01 123.82 5.10L123.82 5.10L123.82 5.10Q124.00 5.19 124.17 5.32L124.17 5.32L124.17 5.32Q124.33 5.45 124.47 5.60L124.47 5.60L124.47 5.60Q124.61 5.75 124.70 5.91L124.70 5.91L124.70 5.91Q124.25 6.09 123.81 6.76L123.81 6.76L123.81 6.76Q123.37 7.43 122.97 8.39L122.97 8.39L122.97 8.39Q122.57 9.35 122.23 10.47L122.23 10.47L122.23 10.47Q121.88 11.59 121.63 12.68L121.63 12.68L121.63 12.68Q121.37 13.76 121.22 14.69L121.22 14.69L121.22 14.69Q121.07 15.61 121.06 16.17L121.06 16.17L121.06 16.17Q121.06 16.20 121.07 16.21L121.07 16.21L121.07 16.21Q121.03 16.23 120.98 16.23L120.98 16.23L120.98 16.23Q120.93 16.23 120.89 16.23L120.89 16.23L120.89 16.23Q120.25 16.23 119.75 16.07L119.75 16.07L119.75 16.07Q119.25 15.90 119.10 15.61L119.10 15.61L119.10 15.61Q118.80 14.43 118.61 13.34L118.61 13.34L118.61 13.34Q118.41 12.25 118.28 11.16L118.28 11.16L118.28 11.16Q118.15 10.07 118.07 8.95L118.07 8.95L118.07 8.95Q117.99 7.84 117.95 6.62L117.95 6.62L117.95 6.62Q117.68 7.04 117.39 7.72L117.39 7.72L117.39 7.72Q117.10 8.40 116.82 9.21L116.82 9.21L116.82 9.21Q116.54 10.02 116.28 10.92L116.28 10.92L116.28 10.92Q116.02 11.82 115.82 12.67L115.82 12.67L115.82 12.67Q115.63 13.52 115.51 14.29L115.51 14.29L115.51 14.29Q115.40 15.05 115.40 15.61L115.40 15.61L115.40 15.61Q115.40 15.90 115.41 16.03L115.41 16.03L115.41 16.03Q115.42 16.16 115.44 16.24ZM138.52 10.72L138.52 10.72L138.52 10.72Q138.88 10.72 139.09 10.98L139.09 10.98L139.09 10.98Q139.30 11.23 139.30 11.68L139.30 11.68L139.30 11.68Q139.30 11.79 139.29 11.91L139.29 11.91L139.29 11.91Q139.27 12.03 139.24 12.11L139.24 12.11L139.24 12.11Q138.95 12.04 138.60 12.03L138.60 12.03L138.60 12.03Q138.52 12.64 138.15 13.32L138.15 13.32L138.15 13.32Q137.79 14 137.27 14.60L137.27 14.60L137.27 14.60Q136.75 15.19 136.14 15.64L136.14 15.64L136.14 15.64Q135.52 16.09 134.92 16.24L134.92 16.24L134.92 16.24Q133.04 16.20 132.18 15.27L132.18 15.27L132.18 15.27Q131.32 14.34 131.32 12.36L131.32 12.36L131.32 12.36Q131.32 10.92 131.85 9.57L131.85 9.57L131.85 9.57Q132.38 8.22 133.27 7.17L133.27 7.17L133.27 7.17Q134.15 6.12 135.29 5.48L135.29 5.48L135.29 5.48Q136.43 4.84 137.66 4.84L137.66 4.84L137.66 4.84Q138.63 4.84 139.17 5.25L139.17 5.25L139.17 5.25Q139.71 5.66 139.71 6.40L139.71 6.40L139.71 6.40Q139.71 6.89 139.47 7.31L139.47 7.31L139.47 7.31Q139.24 7.73 138.71 8.22L138.71 8.22L138.71 8.22Q138.39 8.12 138.15 7.88L138.15 7.88L138.15 7.88Q137.91 7.63 137.86 7.31L137.86 7.31L137.86 7.31Q138.33 6.96 138.53 6.66L138.53 6.66L138.53 6.66Q138.73 6.37 138.73 5.96L138.73 5.96L138.73 5.96Q138.73 5.32 137.96 5.32L137.96 5.32L137.96 5.32Q137.33 5.32 136.61 5.79L136.61 5.79L136.61 5.79Q135.88 6.26 135.16 7.14L135.16 7.14L135.16 7.14Q134.12 8.39 133.64 9.71L133.64 9.71L133.64 9.71Q133.17 11.03 133.17 12.68L133.17 12.68L133.17 12.68Q133.17 13.30 133.29 13.80L133.29 13.80L133.29 13.80Q133.42 14.31 133.63 14.69L133.63 14.69L133.63 14.69Q133.84 15.06 134.13 15.29L134.13 15.29L134.13 15.29Q134.41 15.51 134.75 15.54L134.75 15.54L134.75 15.54Q135.20 15.44 135.65 15.09L135.65 15.09L135.65 15.09Q136.09 14.73 136.47 14.25L136.47 14.25L136.47 14.25Q136.84 13.76 137.09 13.21L137.09 13.21L137.09 13.21Q137.35 12.66 137.41 12.15L137.41 12.15L137.41 12.15Q137.02 12.24 136.66 12.31L136.66 12.31L136.66 12.31Q136.30 12.39 135.98 12.39L135.98 12.39L135.98 12.39Q135.56 12.39 135.25 12.18L135.25 12.18L135.25 12.18Q134.93 11.97 134.82 11.61L134.82 11.61L134.82 11.61Q135.07 11.47 135.56 11.31L135.56 11.31L135.56 11.31Q136.04 11.16 136.58 11.03L136.58 11.03L136.58 11.03Q137.13 10.89 137.66 10.81L137.66 10.81L137.66 10.81Q138.18 10.72 138.52 10.72ZM162.97 9.21L162.97 9.21L162.97 9.21Q163.44 9.21 163.69 9.46L163.69 9.46L163.69 9.46Q163.95 9.72 163.95 10.16L163.95 10.16L163.95 10.16Q163.95 10.28 163.93 10.39L163.93 10.39L163.93 10.39Q163.91 10.51 163.88 10.60L163.88 10.60L163.88 10.60Q163.70 10.57 163.48 10.55L163.48 10.55L163.48 10.55Q163.25 10.53 162.95 10.53L162.95 10.53L162.95 10.53Q162.34 10.53 161.73 10.63L161.73 10.63L161.73 10.63Q161.11 10.74 160.55 10.81L160.55 10.81L160.55 10.81Q160.23 11.55 159.96 12.24L159.96 12.24L159.96 12.24Q159.70 12.94 159.51 13.51L159.51 13.51L159.51 13.51Q159.32 14.08 159.22 14.50L159.22 14.50L159.22 14.50Q159.11 14.92 159.10 15.13L159.10 15.13L159.10 15.13Q160.23 14.90 161.38 14.73L161.38 14.73L161.38 14.73Q162.54 14.56 163.81 14.48L163.81 14.48L163.81 14.48Q163.97 14.71 164.07 14.99L164.07 14.99L164.07 14.99Q164.18 15.27 164.18 15.60L164.18 15.60L164.18 15.60Q164.18 15.68 164.18 15.78L164.18 15.78L164.18 15.78Q164.18 15.88 164.15 15.97L164.15 15.97L164.15 15.97Q163.76 15.96 163.32 15.95L163.32 15.95L163.32 15.95Q162.89 15.95 162.19 15.95L162.19 15.95L162.19 15.95Q161.73 15.95 161.31 15.97L161.31 15.97L161.31 15.97Q160.90 15.99 160.48 16.03L160.48 16.03L160.48 16.03Q160.06 16.07 159.59 16.14L159.59 16.14L159.59 16.14Q159.12 16.21 158.54 16.31L158.54 16.31L158.54 16.31Q157.89 16.06 157.29 15.08L157.29 15.08L157.29 15.08Q157.53 14.57 157.95 13.54L157.95 13.54L157.95 13.54Q158.38 12.52 159.04 10.79L159.04 10.79L159.04 10.79Q158.41 10.60 158.21 10.09L158.21 10.09L158.21 10.09Q158.28 10.02 158.62 9.92L158.62 9.92L158.62 9.92Q158.96 9.81 159.45 9.70L159.45 9.70L159.45 9.70Q159.66 9.16 159.80 8.75L159.80 8.75L159.80 8.75Q159.95 8.34 160.06 7.99L160.06 7.99L160.06 7.99Q160.17 7.63 160.26 7.29L160.26 7.29L160.26 7.29Q160.36 6.94 160.44 6.54L160.44 6.54L160.44 6.54Q159.95 6.51 159.67 6.27L159.67 6.27L159.67 6.27Q159.39 6.02 159.39 5.63L159.39 5.63L159.39 5.63Q159.39 5.52 159.42 5.36L159.42 5.36L159.42 5.36Q159.46 5.21 159.50 5.10L159.50 5.10L159.50 5.10Q159.78 5.14 160.04 5.15L160.04 5.15L160.04 5.15Q160.30 5.17 160.72 5.17L160.72 5.17L160.72 5.17Q161.60 5.17 162.37 5.12L162.37 5.12L162.37 5.12Q163.14 5.07 163.76 5.01L163.76 5.01L163.76 5.01Q164.39 4.96 164.84 4.91L164.84 4.91L164.84 4.91Q165.28 4.86 165.52 4.86L165.52 4.86L165.52 4.86Q165.84 4.86 166.10 5.19L166.10 5.19L166.10 5.19Q166.35 5.53 166.47 6.15L166.47 6.15L166.47 6.15Q166.04 6.10 165.77 6.09L165.77 6.09L165.77 6.09Q165.49 6.08 165.28 6.08L165.28 6.08L165.28 6.08Q164.51 6.08 163.88 6.15L163.88 6.15L163.88 6.15Q163.24 6.23 162.65 6.31L162.65 6.31L162.65 6.31Q162.57 6.44 162.46 6.64L162.46 6.64L162.46 6.64Q162.36 6.83 162.19 7.18L162.19 7.18L162.19 7.18Q162.02 7.53 161.78 8.06L161.78 8.06L161.78 8.06Q161.53 8.60 161.18 9.39L161.18 9.39L161.18 9.39Q161.71 9.31 162.18 9.26L162.18 9.26L162.18 9.26Q162.65 9.21 162.97 9.21ZM173.66 14.45L173.66 14.45L173.66 14.45Q173.87 13.99 174.16 13.26L174.16 13.26L174.16 13.26Q174.45 12.53 174.78 11.68L174.78 11.68L174.78 11.68Q175.10 10.84 175.43 9.95L175.43 9.95L175.43 9.95Q175.77 9.06 176.06 8.26L176.06 8.26L176.06 8.26Q176.36 7.46 176.57 6.83L176.57 6.83L176.57 6.83Q176.79 6.20 176.89 5.87L176.89 5.87L176.89 5.87Q176.01 6.23 175.38 6.97L175.38 6.97L175.38 6.97Q174.75 7.71 174.43 8.83L174.43 8.83L174.43 8.83Q174.10 8.72 173.84 8.43L173.84 8.43L173.84 8.43Q173.57 8.15 173.49 7.71L173.49 7.71L173.49 7.71Q173.63 7.07 174.01 6.54L174.01 6.54L174.01 6.54Q174.40 6.01 174.99 5.63L174.99 5.63L174.99 5.63Q175.57 5.25 176.34 5.05L176.34 5.05L176.34 5.05Q177.11 4.84 178.00 4.84L178.00 4.84L178.00 4.84Q179.12 4.84 180.05 5.17L180.05 5.17L180.05 5.17Q180.99 5.50 181.66 6.09L181.66 6.09L181.66 6.09Q182.34 6.68 182.71 7.50L182.71 7.50L182.71 7.50Q183.09 8.33 183.09 9.34L183.09 9.34L183.09 9.34Q183.09 10.71 182.59 11.96L182.59 11.96L182.59 11.96Q182.08 13.20 181.22 14.15L181.22 14.15L181.22 14.15Q180.36 15.11 179.23 15.67L179.23 15.67L179.23 15.67Q178.09 16.24 176.85 16.24L176.85 16.24L176.85 16.24Q175.70 16.24 174.88 15.79L174.88 15.79L174.88 15.79Q174.06 15.33 173.66 14.45ZM178.60 5.54L178.60 5.54L178.60 5.54Q177.90 5.54 177.27 5.74L177.27 5.74L177.27 5.74Q177.88 5.96 178.29 6.21L178.29 6.21L178.29 6.21Q178.70 6.45 178.85 6.59L178.85 6.59L178.85 6.59Q178.74 6.75 178.52 7.14L178.52 7.14L178.52 7.14Q178.30 7.53 178.02 8.09L178.02 8.09L178.02 8.09Q177.73 8.65 177.41 9.32L177.41 9.32L177.41 9.32Q177.09 9.98 176.78 10.68L176.78 10.68L176.78 10.68Q175.98 12.46 175.62 13.48L175.62 13.48L175.62 13.48Q175.27 14.50 175.27 14.90L175.27 14.90L175.27 14.90Q175.46 14.97 175.74 14.99L175.74 14.99L175.74 14.99Q176.02 15.02 176.34 15.02L176.34 15.02L176.34 15.02Q177.48 15.02 178.49 14.50L178.49 14.50L178.49 14.50Q179.51 13.97 180.27 13.09L180.27 13.09L180.27 13.09Q181.03 12.21 181.47 11.04L181.47 11.04L181.47 11.04Q181.92 9.87 181.92 8.58L181.92 8.58L181.92 8.58Q181.92 7.14 181.02 6.34L181.02 6.34L181.02 6.34Q180.12 5.54 178.60 5.54ZM195.99 5.75L195.99 5.75L195.99 5.75Q195.37 6.58 194.87 7.57L194.87 7.57L194.87 7.57Q194.36 8.57 194.00 9.61L194.00 9.61L194.00 9.61Q193.65 10.65 193.46 11.67L193.46 11.67L193.46 11.67Q193.27 12.68 193.27 13.57L193.27 13.57L193.27 13.57Q193.27 14.66 193.59 15.15L193.59 15.15L193.59 15.15Q193.91 15.64 194.70 15.64L194.70 15.64L194.70 15.64Q195.61 15.64 196.29 15.00L196.29 15.00L196.29 15.00Q196.98 14.36 197.58 13.24L197.58 13.24L197.58 13.24Q197.97 12.52 198.25 11.65L198.25 11.65L198.25 11.65Q198.53 10.78 198.71 9.86L198.71 9.86L198.71 9.86Q198.88 8.95 198.97 8.02L198.97 8.02L198.97 8.02Q199.05 7.08 199.05 6.23L199.05 6.23L199.05 6.23Q199.05 5.68 199.04 5.43L199.04 5.43L199.04 5.43Q199.02 5.18 199.00 5.03L199.00 5.03L199.00 5.03Q199.04 5.03 199.21 5.05L199.21 5.05L199.21 5.05Q199.37 5.08 199.59 5.12L199.59 5.12L199.59 5.12Q199.81 5.17 200.03 5.24L200.03 5.24L200.03 5.24Q200.24 5.31 200.40 5.39L200.40 5.39L200.40 5.39Q200.33 6.45 200.14 7.59L200.14 7.59L200.14 7.59Q199.95 8.72 199.64 9.83L199.64 9.83L199.64 9.83Q199.33 10.93 198.93 11.96L198.93 11.96L198.93 11.96Q198.52 12.98 198.02 13.79L198.02 13.79L198.02 13.79Q197.27 14.99 196.35 15.67L196.35 15.67L196.35 15.67Q195.43 16.35 194.17 16.35L194.17 16.35L194.17 16.35Q192.88 16.35 192.16 15.60L192.16 15.60L192.16 15.60Q191.45 14.85 191.45 13.33L191.45 13.33L191.45 13.33Q191.45 12.45 191.65 11.33L191.65 11.33L191.65 11.33Q191.84 10.22 192.17 9.07L192.17 9.07L192.17 9.07Q192.50 7.91 192.93 6.81L192.93 6.81L192.93 6.81Q193.37 5.71 193.84 4.84L193.84 4.84L193.84 4.84Q194.08 4.86 194.40 4.94L194.40 4.94L194.40 4.94Q194.73 5.03 195.03 5.16L195.03 5.16L195.03 5.16Q195.34 5.29 195.60 5.45L195.60 5.45L195.60 5.45Q195.86 5.61 195.99 5.75ZM207.94 12.43L207.94 12.43L207.94 12.43Q207.94 11.45 208.17 10.51L208.17 10.51L208.17 10.51Q208.40 9.56 208.82 8.71L208.82 8.71L208.82 8.71Q209.24 7.87 209.83 7.16L209.83 7.16L209.83 7.16Q210.41 6.45 211.10 5.94L211.10 5.94L211.10 5.94Q211.79 5.42 212.58 5.13L212.58 5.13L212.58 5.13Q213.36 4.84 214.19 4.84L214.19 4.84L214.19 4.84Q215.15 4.84 215.69 5.25L215.69 5.25L215.69 5.25Q216.23 5.66 216.23 6.38L216.23 6.38L216.23 6.38Q216.23 6.66 216.15 6.96L216.15 6.96L216.15 6.96Q216.08 7.25 215.93 7.54L215.93 7.54L215.93 7.54Q215.78 7.83 215.59 8.09L215.59 8.09L215.59 8.09Q215.39 8.36 215.15 8.55L215.15 8.55L215.15 8.55Q214.79 8.50 214.52 8.22L214.52 8.22L214.52 8.22Q214.26 7.95 214.19 7.59L214.19 7.59L214.19 7.59Q214.68 7.18 214.96 6.74L214.96 6.74L214.96 6.74Q215.25 6.30 215.25 5.94L215.25 5.94L215.25 5.94Q215.25 5.32 214.48 5.32L214.48 5.32L214.48 5.32Q214.16 5.32 213.81 5.45L213.81 5.45L213.81 5.45Q213.47 5.59 213.12 5.82L213.12 5.82L213.12 5.82Q212.77 6.06 212.44 6.40L212.44 6.40L212.44 6.40Q212.11 6.73 211.83 7.14L211.83 7.14L211.83 7.14Q209.89 9.94 209.89 12.87L209.89 12.87L209.89 12.87Q209.89 13.90 210.21 14.53L210.21 14.53L210.21 14.53Q210.53 15.16 211.06 15.27L211.06 15.27L211.06 15.27Q211.67 15.13 212.59 14.50L212.59 14.50L212.59 14.50Q213.51 13.87 214.61 12.87L214.61 12.87L214.61 12.87Q214.75 13.01 214.77 13.16L214.77 13.16L214.77 13.16Q214.37 13.69 213.93 14.18L213.93 14.18L213.93 14.18Q213.50 14.67 213.07 15.08L213.07 15.08L213.07 15.08Q212.65 15.48 212.23 15.79L212.23 15.79L212.23 15.79Q211.82 16.10 211.47 16.27L211.47 16.27L211.47 16.27Q209.73 16.24 208.84 15.27L208.84 15.27L208.84 15.27Q207.94 14.31 207.94 12.43ZM223.38 16.24L223.38 16.24L223.38 16.24Q222.71 16.04 222.45 15.85L222.45 15.85L222.45 15.85Q222.19 15.65 222.19 15.36L222.19 15.36L222.19 15.36Q222.19 15.13 222.32 14.73L222.32 14.73L222.32 14.73Q222.45 14.32 222.69 13.77L222.69 13.77L222.69 13.77Q222.94 13.22 223.28 12.54L223.28 12.54L223.28 12.54Q223.62 11.87 224.06 11.10L224.06 11.10L224.06 11.10Q223.69 11.09 223.41 11.08L223.41 11.08L223.41 11.08Q223.12 11.07 222.94 11.07L222.94 11.07L222.94 11.07Q223.02 10.86 223.41 10.71L223.41 10.71L223.41 10.71Q223.80 10.56 224.45 10.44L224.45 10.44L224.45 10.44Q224.99 9.53 225.62 8.71L225.62 8.71L225.62 8.71Q226.24 7.88 226.87 7.19L226.87 7.19L226.87 7.19Q227.50 6.50 228.13 5.97L228.13 5.97L228.13 5.97Q228.76 5.45 229.33 5.14L229.33 5.14L229.33 5.14Q229.35 5.04 229.36 4.97L229.36 4.97L229.36 4.97Q229.36 4.90 229.36 4.87L229.36 4.87L229.36 4.87Q229.56 4.87 229.89 4.97L229.89 4.97L229.89 4.97Q230.22 5.07 230.53 5.21L230.53 5.21L230.53 5.21Q230.85 5.35 231.09 5.49L231.09 5.49L231.09 5.49Q231.34 5.64 231.36 5.74L231.36 5.74L231.36 5.74Q230.90 6.55 230.45 8.17L230.45 8.17L230.45 8.17Q230.01 9.79 229.71 12.04L229.71 12.04L229.71 12.04Q229.64 12.60 229.59 13.31L229.59 13.31L229.59 13.31Q229.54 14.03 229.54 14.91L229.54 14.91L229.54 14.91Q229.54 15.22 229.54 15.54L229.54 15.54L229.54 15.54Q229.54 15.86 229.57 16.21L229.57 16.21L229.57 16.21Q229.54 16.23 229.52 16.23L229.52 16.23L229.52 16.23Q229.49 16.23 229.40 16.23L229.40 16.23L229.40 16.23Q229.21 16.23 228.95 16.16L228.95 16.16L228.95 16.16Q228.69 16.10 228.44 16.01L228.44 16.01L228.44 16.01Q228.20 15.92 228.03 15.81L228.03 15.81L228.03 15.81Q227.85 15.69 227.81 15.61L227.81 15.61L227.81 15.61Q227.79 15.43 227.79 15.25L227.79 15.25L227.79 15.25Q227.79 15.08 227.79 14.88L227.79 14.88L227.79 14.88Q227.79 14.01 227.86 13.12L227.86 13.12L227.86 13.12Q227.92 12.22 228.07 11.27L228.07 11.27L228.07 11.27Q227.88 11.26 227.56 11.23L227.56 11.23L227.56 11.23Q227.23 11.21 226.84 11.20L226.84 11.20L226.84 11.20Q226.44 11.19 225.98 11.16L225.98 11.16L225.98 11.16Q225.53 11.14 225.09 11.13L225.09 11.13L225.09 11.13Q224.76 11.76 224.46 12.38L224.46 12.38L224.46 12.38Q224.17 13.01 223.96 13.64L223.96 13.64L223.96 13.64Q223.72 14.31 223.57 14.98L223.57 14.98L223.57 14.98Q223.43 15.65 223.38 16.24ZM228.79 7.83L228.79 7.83L228.79 7.83Q228.84 7.63 228.92 7.29L228.92 7.29L228.92 7.29Q229.00 6.94 229.07 6.57L229.07 6.57L229.07 6.57Q228.72 6.69 228.29 7.03L228.29 7.03L228.29 7.03Q227.86 7.36 227.41 7.86L227.41 7.86L227.41 7.86Q226.95 8.36 226.49 8.98L226.49 8.98L226.49 8.98Q226.02 9.60 225.58 10.30L225.58 10.30L225.58 10.30Q226.76 10.21 228.26 10.18L228.26 10.18L228.26 10.18Q228.37 9.59 228.50 9.01L228.50 9.01L228.50 9.01Q228.63 8.43 228.79 7.83ZM240.94 6.69L240.94 6.69L240.94 6.69Q240.38 6.69 240.08 6.38L240.08 6.38L240.08 6.38Q239.78 6.06 239.78 5.61L239.78 5.61L239.78 5.61Q239.78 5.50 239.81 5.35L239.81 5.35L239.81 5.35Q239.85 5.19 239.90 5.08L239.90 5.08L239.90 5.08Q240.09 5.17 240.44 5.20L240.44 5.20L240.44 5.20Q240.80 5.24 241.28 5.24L241.28 5.24L241.28 5.24Q241.99 5.24 242.89 5.17L242.89 5.17L242.89 5.17Q243.80 5.11 244.62 5.04L244.62 5.04L244.62 5.04Q245.45 4.97 246.08 4.91L246.08 4.91L246.08 4.91Q246.71 4.84 246.89 4.84L246.89 4.84L246.89 4.84Q247.41 4.84 247.64 5.23L247.64 5.23L247.64 5.23Q247.87 5.61 247.98 6.26L247.98 6.26L247.98 6.26Q247.62 6.23 247.26 6.21L247.26 6.21L247.26 6.21Q246.90 6.19 246.65 6.19L246.65 6.19L246.65 6.19Q246.20 6.19 245.75 6.22L245.75 6.22L245.75 6.22Q245.29 6.24 244.83 6.30L244.83 6.30L244.83 6.30Q244.64 6.71 244.40 7.26L244.40 7.26L244.40 7.26Q244.16 7.81 243.93 8.41L243.93 8.41L243.93 8.41Q243.70 9.02 243.49 9.61L243.49 9.61L243.49 9.61Q243.28 10.21 243.12 10.68L243.12 10.68L243.12 10.68Q242.82 11.61 242.58 12.39L242.58 12.39L242.58 12.39Q242.35 13.17 242.18 13.85L242.18 13.85L242.18 13.85Q242.00 14.53 241.88 15.15L241.88 15.15L241.88 15.15Q241.75 15.76 241.65 16.35L241.65 16.35L241.65 16.35Q240.72 16.21 240.09 15.18L240.09 15.18L240.09 15.18Q240.20 14.74 240.36 14.23L240.36 14.23L240.36 14.23Q240.52 13.72 240.74 13.07L240.74 13.07L240.74 13.07Q240.95 12.42 241.25 11.59L241.25 11.59L241.25 11.59Q241.54 10.77 241.92 9.72L241.92 9.72L241.92 9.72Q242.06 9.32 242.21 8.90L242.21 8.90L242.21 8.90Q242.37 8.47 242.51 8.05L242.51 8.05L242.51 8.05Q242.66 7.63 242.78 7.24L242.78 7.24L242.78 7.24Q242.90 6.85 242.98 6.52L242.98 6.52L242.98 6.52Q242.40 6.59 241.87 6.64L241.87 6.64L241.87 6.64Q241.35 6.69 240.94 6.69ZM253.82 14.38L253.82 14.38L253.82 14.38Q253.82 13.87 253.98 13.07L253.98 13.07L253.98 13.07Q254.14 12.26 254.40 11.33L254.40 11.33L254.40 11.33Q254.66 10.40 255.00 9.43L255.00 9.43L255.00 9.43Q255.33 8.46 255.68 7.60L255.68 7.60L255.68 7.60Q256.03 6.75 256.37 6.10L256.37 6.10L256.37 6.10Q256.70 5.46 256.97 5.18L256.97 5.18L256.97 5.18Q257.11 5.19 257.34 5.29L257.34 5.29L257.34 5.29Q257.57 5.38 257.81 5.50L257.81 5.50L257.81 5.50Q258.05 5.63 258.24 5.78L258.24 5.78L258.24 5.78Q258.44 5.92 258.50 6.05L258.50 6.05L258.50 6.05Q258.09 6.41 257.69 7.15L257.69 7.15L257.69 7.15Q257.29 7.88 256.92 8.82L256.92 8.82L256.92 8.82Q256.55 9.76 256.23 10.80L256.23 10.80L256.23 10.80Q255.91 11.84 255.67 12.82L255.67 12.82L255.67 12.82Q255.43 13.80 255.30 14.64L255.30 14.64L255.30 14.64Q255.16 15.48 255.16 16.00L255.16 16.00L255.16 16.00Q255.16 16.24 255.21 16.30L255.21 16.30L255.21 16.30Q254.90 16.28 254.76 16.19L254.76 16.19L254.76 16.19Q254.62 16.10 254.54 16.00L254.54 16.00L254.54 16.00Q254.46 15.89 254.40 15.79L254.40 15.79L254.40 15.79Q254.34 15.68 254.21 15.62L254.21 15.62L254.21 15.62Q254.11 15.58 254.04 15.43L254.04 15.43L254.04 15.43Q253.97 15.27 253.92 15.09L253.92 15.09L253.92 15.09Q253.88 14.90 253.85 14.70L253.85 14.70L253.85 14.70Q253.82 14.50 253.82 14.38ZM271.26 4.98L271.26 4.98L271.26 4.98Q271.53 5.10 271.81 5.27L271.81 5.27L271.81 5.27Q272.09 5.45 272.33 5.63L272.33 5.63L272.33 5.63Q272.57 5.81 272.73 5.98L272.73 5.98L272.73 5.98Q272.89 6.16 272.90 6.27L272.90 6.27L272.90 6.27Q272.66 6.22 272.43 6.20L272.43 6.20L272.43 6.20Q272.19 6.17 271.99 6.17L271.99 6.17L271.99 6.17Q271.36 6.17 270.74 6.48L270.74 6.48L270.74 6.48Q270.12 6.79 269.56 7.32L269.56 7.32L269.56 7.32Q269.00 7.85 268.52 8.57L268.52 8.57L268.52 8.57Q268.04 9.28 267.70 10.09L267.70 10.09L267.70 10.09Q267.36 10.91 267.16 11.77L267.16 11.77L267.16 11.77Q266.97 12.64 266.97 13.48L266.97 13.48L266.97 13.48Q266.97 14.57 267.33 15.11L267.33 15.11L267.33 15.11Q267.69 15.64 268.39 15.64L268.39 15.64L268.39 15.64Q268.73 15.64 269.12 15.51L269.12 15.51L269.12 15.51Q269.51 15.37 269.92 15.13L269.92 15.13L269.92 15.13Q270.33 14.90 270.72 14.56L270.72 14.56L270.72 14.56Q271.11 14.22 271.45 13.82L271.45 13.82L271.45 13.82Q271.94 13.23 272.33 12.48L272.33 12.48L272.33 12.48Q272.72 11.73 272.99 10.89L272.99 10.89L272.99 10.89Q273.27 10.05 273.41 9.16L273.41 9.16L273.41 9.16Q273.56 8.27 273.56 7.42L273.56 7.42L273.56 7.42Q273.56 7.08 273.55 6.85L273.55 6.85L273.55 6.85Q273.53 6.62 273.51 6.46L273.51 6.46L273.51 6.46Q273.49 6.30 273.48 6.20L273.48 6.20L273.48 6.20Q273.46 6.10 273.45 6.03L273.45 6.03L273.45 6.03Q273.62 6.12 273.82 6.24L273.82 6.24L273.82 6.24Q274.02 6.36 274.20 6.59L274.20 6.59L274.20 6.59Q274.37 6.82 274.49 7.20L274.49 7.20L274.49 7.20Q274.61 7.57 274.61 8.18L274.61 8.18L274.61 8.18Q274.61 9.16 274.38 10.10L274.38 10.10L274.38 10.10Q274.15 11.05 273.74 11.90L273.74 11.90L273.74 11.90Q273.32 12.75 272.76 13.50L272.76 13.50L272.76 13.50Q272.20 14.24 271.56 14.80L271.56 14.80L271.56 14.80Q270.72 15.54 269.77 15.95L269.77 15.95L269.77 15.95Q268.81 16.35 267.93 16.35L267.93 16.35L267.93 16.35Q266.64 16.35 265.97 15.53L265.97 15.53L265.97 15.53Q265.29 14.71 265.29 13.12L265.29 13.12L265.29 13.12Q265.29 12.26 265.48 11.31L265.48 11.31L265.48 11.31Q265.66 10.36 266.01 9.44L266.01 9.44L266.01 9.44Q266.35 8.51 266.83 7.68L266.83 7.68L266.83 7.68Q267.30 6.85 267.87 6.21L267.87 6.21L267.87 6.21Q268.44 5.57 269.09 5.19L269.09 5.19L269.09 5.19Q269.74 4.82 270.42 4.82L270.42 4.82L270.42 4.82Q270.65 4.82 270.84 4.85L270.84 4.85L270.84 4.85Q271.04 4.89 271.26 4.98ZM283.18 16.24L283.18 16.24L283.18 16.24Q282.38 16.00 282.10 15.79L282.10 15.79L282.10 15.79Q281.82 15.57 281.82 15.19L281.82 15.19L281.82 15.19Q281.82 14.77 282.02 14.01L282.02 14.01L282.02 14.01Q282.21 13.24 282.53 12.31L282.53 12.31L282.53 12.31Q282.84 11.37 283.25 10.35L283.25 10.35L283.25 10.35Q283.65 9.32 284.07 8.39L284.07 8.39L284.07 8.39Q284.49 7.45 284.89 6.67L284.89 6.67L284.89 6.67Q285.29 5.89 285.60 5.46L285.60 5.46L285.50 4.87L285.50 4.87Q285.70 4.87 286.05 4.97L286.05 4.97L286.05 4.97Q286.40 5.07 286.76 5.21L286.76 5.21L286.76 5.21Q287.11 5.35 287.39 5.49L287.39 5.49L287.39 5.49Q287.66 5.64 287.69 5.74L287.69 5.74L287.69 5.74Q287.62 6.08 287.57 6.76L287.57 6.76L287.57 6.76Q287.53 7.43 287.53 8.20L287.53 8.20L287.53 8.20Q287.53 9.73 287.65 11.19L287.65 11.19L287.65 11.19Q287.77 12.66 288.20 14.17L288.20 14.17L288.20 14.17Q288.43 13.05 288.69 11.94L288.69 11.94L288.69 11.94Q288.95 10.82 289.23 9.81L289.23 9.81L289.23 9.81Q289.51 8.79 289.79 7.92L289.79 7.92L289.79 7.92Q290.07 7.06 290.33 6.40L290.33 6.40L290.33 6.40Q290.58 5.75 290.81 5.38L290.81 5.38L290.81 5.38Q291.03 5.01 291.21 4.98L291.21 4.98L291.21 4.98Q291.37 5.01 291.55 5.10L291.55 5.10L291.55 5.10Q291.73 5.19 291.90 5.32L291.90 5.32L291.90 5.32Q292.07 5.45 292.21 5.60L292.21 5.60L292.21 5.60Q292.35 5.75 292.43 5.91L292.43 5.91L292.43 5.91Q291.98 6.09 291.54 6.76L291.54 6.76L291.54 6.76Q291.10 7.43 290.70 8.39L290.70 8.39L290.70 8.39Q290.30 9.35 289.96 10.47L289.96 10.47L289.96 10.47Q289.62 11.59 289.36 12.68L289.36 12.68L289.36 12.68Q289.10 13.76 288.95 14.69L288.95 14.69L288.95 14.69Q288.81 15.61 288.79 16.17L288.79 16.17L288.79 16.17Q288.79 16.20 288.81 16.21L288.81 16.21L288.81 16.21Q288.76 16.23 288.72 16.23L288.72 16.23L288.72 16.23Q288.67 16.23 288.62 16.23L288.62 16.23L288.62 16.23Q287.98 16.23 287.48 16.07L287.48 16.07L287.48 16.07Q286.99 15.90 286.83 15.61L286.83 15.61L286.83 15.61Q286.54 14.43 286.34 13.34L286.34 13.34L286.34 13.34Q286.15 12.25 286.01 11.16L286.01 11.16L286.01 11.16Q285.88 10.07 285.80 8.95L285.80 8.95L285.80 8.95Q285.73 7.84 285.68 6.62L285.68 6.62L285.68 6.62Q285.42 7.04 285.12 7.72L285.12 7.72L285.12 7.72Q284.83 8.40 284.55 9.21L284.55 9.21L284.55 9.21Q284.27 10.02 284.01 10.92L284.01 10.92L284.01 10.92Q283.75 11.82 283.56 12.67L283.56 12.67L283.56 12.67Q283.36 13.52 283.25 14.29L283.25 14.29L283.25 14.29Q283.14 15.05 283.14 15.61L283.14 15.61L283.14 15.61Q283.14 15.90 283.14 16.03L283.14 16.03L283.14 16.03Q283.15 16.16 283.18 16.24ZM311.60 6.69L311.60 6.69L311.60 6.69Q311.04 6.69 310.74 6.38L310.74 6.38L310.74 6.38Q310.44 6.06 310.44 5.61L310.44 5.61L310.44 5.61Q310.44 5.50 310.47 5.35L310.47 5.35L310.47 5.35Q310.51 5.19 310.56 5.08L310.56 5.08L310.56 5.08Q310.74 5.17 311.10 5.20L311.10 5.20L311.10 5.20Q311.46 5.24 311.93 5.24L311.93 5.24L311.93 5.24Q312.65 5.24 313.55 5.17L313.55 5.17L313.55 5.17Q314.45 5.11 315.28 5.04L315.28 5.04L315.28 5.04Q316.11 4.97 316.74 4.91L316.74 4.91L316.74 4.91Q317.37 4.84 317.55 4.84L317.55 4.84L317.55 4.84Q318.07 4.84 318.30 5.23L318.30 5.23L318.30 5.23Q318.53 5.61 318.64 6.26L318.64 6.26L318.64 6.26Q318.28 6.23 317.92 6.21L317.92 6.21L317.92 6.21Q317.56 6.19 317.31 6.19L317.31 6.19L317.31 6.19Q316.86 6.19 316.41 6.22L316.41 6.22L316.41 6.22Q315.95 6.24 315.49 6.30L315.49 6.30L315.49 6.30Q315.29 6.71 315.06 7.26L315.06 7.26L315.06 7.26Q314.82 7.81 314.59 8.41L314.59 8.41L314.59 8.41Q314.36 9.02 314.15 9.61L314.15 9.61L314.15 9.61Q313.94 10.21 313.78 10.68L313.78 10.68L313.78 10.68Q313.47 11.61 313.24 12.39L313.24 12.39L313.24 12.39Q313.01 13.17 312.84 13.85L312.84 13.85L312.84 13.85Q312.66 14.53 312.54 15.15L312.54 15.15L312.54 15.15Q312.41 15.76 312.31 16.35L312.31 16.35L312.31 16.35Q311.37 16.21 310.74 15.18L310.74 15.18L310.74 15.18Q310.86 14.74 311.02 14.23L311.02 14.23L311.02 14.23Q311.18 13.72 311.40 13.07L311.40 13.07L311.40 13.07Q311.61 12.42 311.91 11.59L311.91 11.59L311.91 11.59Q312.20 10.77 312.58 9.72L312.58 9.72L312.58 9.72Q312.72 9.32 312.87 8.90L312.87 8.90L312.87 8.90Q313.03 8.47 313.17 8.05L313.17 8.05L313.17 8.05Q313.32 7.63 313.44 7.24L313.44 7.24L313.44 7.24Q313.56 6.85 313.64 6.52L313.64 6.52L313.64 6.52Q313.05 6.59 312.53 6.64L312.53 6.64L312.53 6.64Q312.00 6.69 311.60 6.69ZM329.52 14.36L329.52 14.36L329.52 14.36Q329.52 13.78 329.71 12.85L329.71 12.85L329.71 12.85Q329.91 11.93 330.23 10.88L330.23 10.88L330.23 10.88Q329.31 10.95 328.38 11.06L328.38 11.06L328.38 11.06Q327.45 11.17 326.76 11.19L326.76 11.19L326.76 11.19Q326.13 12.66 325.76 13.89L325.76 13.89L325.76 13.89Q325.39 15.13 325.18 16.31L325.18 16.31L325.18 16.31Q324.65 16.18 324.30 15.87L324.30 15.87L324.30 15.87Q323.95 15.55 323.65 15.08L323.65 15.08L323.65 15.08Q323.76 14.85 323.91 14.50L323.91 14.50L323.91 14.50Q324.06 14.15 324.26 13.66L324.26 13.66L324.26 13.66Q324.46 13.16 324.72 12.50L324.72 12.50L324.72 12.50Q324.98 11.83 325.32 10.95L325.32 10.95L325.32 10.95Q324.86 10.75 324.70 10.40L324.70 10.40L324.70 10.40Q324.77 10.35 325.02 10.28L325.02 10.28L325.02 10.28Q325.26 10.22 325.63 10.15L325.63 10.15L325.81 9.70L325.81 9.70Q326.10 8.95 326.29 8.43L326.29 8.43L326.29 8.43Q326.48 7.91 326.61 7.41L326.61 7.41L326.61 7.41Q326.75 6.92 326.87 6.31L326.87 6.31L326.87 6.31Q326.98 5.71 327.15 4.79L327.15 4.79L327.15 4.79Q327.74 4.90 328.22 5.31L328.22 5.31L328.22 5.31Q328.71 5.71 329.06 6.29L329.06 6.29L329.06 6.29Q328.93 6.45 328.75 6.79L328.75 6.79L328.75 6.79Q328.57 7.13 328.35 7.59L328.35 7.59L328.35 7.59Q328.13 8.06 327.88 8.64L327.88 8.64L327.88 8.64Q327.63 9.23 327.33 9.87L327.33 9.87L327.33 9.87Q328.20 9.76 329.09 9.66L329.09 9.66L329.09 9.66Q329.98 9.56 330.67 9.52L330.67 9.52L330.67 9.52Q330.92 8.79 331.19 8.10L331.19 8.10L331.19 8.10Q331.46 7.41 331.73 6.83L331.73 6.83L331.73 6.83Q332.00 6.26 332.24 5.82L332.24 5.82L332.24 5.82Q332.49 5.39 332.68 5.18L332.68 5.18L332.68 5.18Q332.82 5.19 333.05 5.29L333.05 5.29L333.05 5.29Q333.28 5.38 333.52 5.50L333.52 5.50L333.52 5.50Q333.76 5.63 333.96 5.78L333.96 5.78L333.96 5.78Q334.15 5.92 334.22 6.05L334.22 6.05L334.22 6.05Q333.97 6.29 333.72 6.66L333.72 6.66L333.72 6.66Q333.47 7.04 333.22 7.53L333.22 7.53L333.22 7.53Q332.98 8.02 332.74 8.60L332.74 8.60L332.74 8.60Q332.50 9.17 332.29 9.79L332.29 9.79L332.29 9.79Q332.57 10.04 332.57 10.42L332.57 10.42L332.57 10.42Q332.57 10.68 332.46 10.91L332.46 10.91L332.46 10.91Q332.33 10.88 332.21 10.87L332.21 10.87L332.21 10.87Q332.08 10.86 331.94 10.85L331.94 10.85L331.94 10.85Q331.70 11.61 331.51 12.35L331.51 12.35L331.51 12.35Q331.31 13.09 331.18 13.76L331.18 13.76L331.18 13.76Q331.04 14.43 330.97 14.99L330.97 14.99L330.97 14.99Q330.89 15.55 330.89 15.93L330.89 15.93L330.89 15.93Q330.89 16.07 330.90 16.16L330.90 16.16L330.90 16.16Q330.90 16.24 330.92 16.30L330.92 16.30L330.92 16.30Q330.61 16.28 330.47 16.19L330.47 16.19L330.47 16.19Q330.33 16.10 330.26 16.00L330.26 16.00L330.26 16.00Q330.19 15.89 330.13 15.79L330.13 15.79L330.13 15.79Q330.08 15.68 329.95 15.62L329.95 15.62L329.95 15.62Q329.85 15.58 329.77 15.43L329.77 15.43L329.77 15.43Q329.69 15.27 329.63 15.08L329.63 15.08L329.63 15.08Q329.57 14.88 329.55 14.69L329.55 14.69L329.55 14.69Q329.52 14.49 329.52 14.36ZM350.03 7.46L350.03 7.46L350.03 7.46Q350.03 8.13 349.73 8.73L349.73 8.73L349.73 8.73Q349.43 9.32 348.89 9.79L348.89 9.79L348.89 9.79Q348.36 10.26 347.65 10.58L347.65 10.58L347.65 10.58Q346.93 10.91 346.09 11.02L346.09 11.02L346.09 11.02Q346.30 11.65 346.61 12.31L346.61 12.31L346.61 12.31Q346.91 12.98 347.26 13.59L347.26 13.59L347.26 13.59Q347.61 14.21 347.98 14.73L347.98 14.73L347.98 14.73Q348.36 15.25 348.73 15.58L348.73 15.58L348.73 15.58Q348.66 15.72 348.52 15.86L348.52 15.86L348.52 15.86Q348.39 16.00 348.21 16.12L348.21 16.12L348.21 16.12Q348.04 16.24 347.85 16.32L347.85 16.32L347.85 16.32Q347.66 16.39 347.49 16.39L347.49 16.39L347.49 16.39Q347.19 16.39 346.91 16.10L346.91 16.10L346.91 16.10Q346.63 15.81 346.34 15.17L346.34 15.17L346.34 15.17Q346.05 14.53 345.74 13.52L345.74 13.52L345.74 13.52Q345.42 12.50 345.04 11.07L345.04 11.07L345.04 11.07Q344.89 11.07 344.74 11.07L344.74 11.07L344.74 11.07Q344.58 11.07 344.50 11.05L344.50 11.05L344.50 11.05Q344.40 10.99 344.29 10.85L344.29 10.85L344.29 10.85Q343.91 11.66 343.62 12.38L343.62 12.38L343.62 12.38Q343.32 13.09 343.09 13.76L343.09 13.76L343.09 13.76Q342.86 14.42 342.69 15.04L342.69 15.04L342.69 15.04Q342.51 15.67 342.38 16.31L342.38 16.31L342.38 16.31Q341.91 16.20 341.56 15.90L341.56 15.90L341.56 15.90Q341.21 15.61 340.90 15.08L340.90 15.08L340.90 15.08Q340.96 14.95 341.02 14.83L341.02 14.83L341.02 14.83Q341.08 14.71 341.18 14.50L341.18 14.50L341.18 14.50Q341.28 14.28 341.43 13.94L341.43 13.94L341.43 13.94Q341.57 13.61 341.82 13.05L341.82 13.05L341.82 13.05Q342.06 12.49 342.40 11.68L342.40 11.68L342.40 11.68Q342.75 10.86 343.24 9.70L343.24 9.70L343.24 9.70Q343.46 9.18 343.62 8.79L343.62 8.79L343.62 8.79Q343.78 8.40 343.91 8.04L343.91 8.04L343.91 8.04Q344.04 7.69 344.14 7.33L344.14 7.33L344.14 7.33Q344.25 6.97 344.36 6.51L344.36 6.51L344.36 6.51Q343.71 6.73 343.16 7.01L343.16 7.01L343.16 7.01Q342.61 7.28 342.24 7.59L342.24 7.59L342.24 7.59Q342.12 7.50 341.99 7.34L341.99 7.34L341.99 7.34Q341.85 7.17 341.74 6.96L341.74 6.96L341.74 6.96Q341.63 6.76 341.54 6.55L341.54 6.55L341.54 6.55Q341.46 6.34 341.45 6.17L341.45 6.17L341.45 6.17Q341.87 5.89 342.48 5.66L342.48 5.66L342.48 5.66Q343.08 5.42 343.77 5.24L343.77 5.24L343.77 5.24Q344.46 5.07 345.17 4.97L345.17 4.97L345.17 4.97Q345.88 4.87 346.50 4.87L346.50 4.87L346.50 4.87Q348.18 4.87 349.10 5.56L349.10 5.56L349.10 5.56Q350.03 6.26 350.03 7.46ZM346.44 6.02L346.61 6.29L346.61 6.29Q346.51 6.41 346.30 6.79L346.30 6.79L346.30 6.79Q346.09 7.17 345.82 7.69L345.82 7.69L345.82 7.69Q345.55 8.22 345.25 8.83L345.25 8.83L345.25 8.83Q344.95 9.45 344.67 10.05L344.67 10.05L344.67 10.05Q345.72 10.05 346.60 9.86L346.60 9.86L346.60 9.86Q347.48 9.66 348.12 9.30L348.12 9.30L348.12 9.30Q348.77 8.95 349.13 8.46L349.13 8.46L349.13 8.46Q349.48 7.98 349.48 7.39L349.48 7.39L349.48 7.39Q349.48 6.69 348.98 6.32L348.98 6.32L348.98 6.32Q348.47 5.95 347.42 5.95L347.42 5.95L347.42 5.95Q347.19 5.95 346.95 5.97L346.95 5.97L346.95 5.97Q346.71 5.99 346.44 6.02L346.44 6.02ZM363.52 4.98L363.52 4.98L363.52 4.98Q363.79 5.10 364.07 5.27L364.07 5.27L364.07 5.27Q364.35 5.45 364.59 5.63L364.59 5.63L364.59 5.63Q364.83 5.81 364.99 5.98L364.99 5.98L364.99 5.98Q365.15 6.16 365.16 6.27L365.16 6.27L365.16 6.27Q364.92 6.22 364.69 6.20L364.69 6.20L364.69 6.20Q364.45 6.17 364.25 6.17L364.25 6.17L364.25 6.17Q363.62 6.17 363.00 6.48L363.00 6.48L363.00 6.48Q362.38 6.79 361.82 7.32L361.82 7.32L361.82 7.32Q361.26 7.85 360.78 8.57L360.78 8.57L360.78 8.57Q360.30 9.28 359.96 10.09L359.96 10.09L359.96 10.09Q359.62 10.91 359.42 11.77L359.42 11.77L359.42 11.77Q359.23 12.64 359.23 13.48L359.23 13.48L359.23 13.48Q359.23 14.57 359.59 15.11L359.59 15.11L359.59 15.11Q359.95 15.64 360.65 15.64L360.65 15.64L360.65 15.64Q360.99 15.64 361.38 15.51L361.38 15.51L361.38 15.51Q361.77 15.37 362.18 15.13L362.18 15.13L362.18 15.13Q362.59 14.90 362.98 14.56L362.98 14.56L362.98 14.56Q363.37 14.22 363.71 13.82L363.71 13.82L363.71 13.82Q364.20 13.23 364.59 12.48L364.59 12.48L364.59 12.48Q364.98 11.73 365.25 10.89L365.25 10.89L365.25 10.89Q365.53 10.05 365.67 9.16L365.67 9.16L365.67 9.16Q365.82 8.27 365.82 7.42L365.82 7.42L365.82 7.42Q365.82 7.08 365.81 6.85L365.81 6.85L365.81 6.85Q365.79 6.62 365.77 6.46L365.77 6.46L365.77 6.46Q365.75 6.30 365.74 6.20L365.74 6.20L365.74 6.20Q365.72 6.10 365.71 6.03L365.71 6.03L365.71 6.03Q365.88 6.12 366.08 6.24L366.08 6.24L366.08 6.24Q366.28 6.36 366.46 6.59L366.46 6.59L366.46 6.59Q366.63 6.82 366.75 7.20L366.75 7.20L366.75 7.20Q366.87 7.57 366.87 8.18L366.87 8.18L366.87 8.18Q366.87 9.16 366.64 10.10L366.64 10.10L366.64 10.10Q366.41 11.05 365.99 11.90L365.99 11.90L365.99 11.90Q365.58 12.75 365.02 13.50L365.02 13.50L365.02 13.50Q364.46 14.24 363.82 14.80L363.82 14.80L363.82 14.80Q362.98 15.54 362.03 15.95L362.03 15.95L362.03 15.95Q361.07 16.35 360.19 16.35L360.19 16.35L360.19 16.35Q358.90 16.35 358.22 15.53L358.22 15.53L358.22 15.53Q357.55 14.71 357.55 13.12L357.55 13.12L357.55 13.12Q357.55 12.26 357.73 11.31L357.73 11.31L357.73 11.31Q357.92 10.36 358.27 9.44L358.27 9.44L358.27 9.44Q358.61 8.51 359.09 7.68L359.09 7.68L359.09 7.68Q359.56 6.85 360.13 6.21L360.13 6.21L360.13 6.21Q360.70 5.57 361.35 5.19L361.35 5.19L361.35 5.19Q362.00 4.82 362.68 4.82L362.68 4.82L362.68 4.82Q362.91 4.82 363.10 4.85L363.10 4.85L363.10 4.85Q363.30 4.89 363.52 4.98ZM379.57 5.75L379.57 5.75L379.57 5.75Q378.95 6.58 378.45 7.57L378.45 7.57L378.45 7.57Q377.94 8.57 377.59 9.61L377.59 9.61L377.59 9.61Q377.23 10.65 377.04 11.67L377.04 11.67L377.04 11.67Q376.85 12.68 376.85 13.57L376.85 13.57L376.85 13.57Q376.85 14.66 377.17 15.15L377.17 15.15L377.17 15.15Q377.50 15.64 378.28 15.64L378.28 15.64L378.28 15.64Q379.19 15.64 379.88 15.00L379.88 15.00L379.88 15.00Q380.56 14.36 381.16 13.24L381.16 13.24L381.16 13.24Q381.56 12.52 381.84 11.65L381.84 11.65L381.84 11.65Q382.12 10.78 382.29 9.86L382.29 9.86L382.29 9.86Q382.47 8.95 382.55 8.02L382.55 8.02L382.55 8.02Q382.63 7.08 382.63 6.23L382.63 6.23L382.63 6.23Q382.63 5.68 382.62 5.43L382.62 5.43L382.62 5.43Q382.61 5.18 382.58 5.03L382.58 5.03L382.58 5.03Q382.62 5.03 382.79 5.05L382.79 5.05L382.79 5.05Q382.96 5.08 383.17 5.12L383.17 5.12L383.17 5.12Q383.39 5.17 383.61 5.24L383.61 5.24L383.61 5.24Q383.82 5.31 383.98 5.39L383.98 5.39L383.98 5.39Q383.91 6.45 383.72 7.59L383.72 7.59L383.72 7.59Q383.53 8.72 383.22 9.83L383.22 9.83L383.22 9.83Q382.91 10.93 382.51 11.96L382.51 11.96L382.51 11.96Q382.10 12.98 381.60 13.79L381.60 13.79L381.60 13.79Q380.86 14.99 379.93 15.67L379.93 15.67L379.93 15.67Q379.01 16.35 377.75 16.35L377.75 16.35L377.75 16.35Q376.46 16.35 375.75 15.60L375.75 15.60L375.75 15.60Q375.03 14.85 375.03 13.33L375.03 13.33L375.03 13.33Q375.03 12.45 375.23 11.33L375.23 11.33L375.23 11.33Q375.42 10.22 375.75 9.07L375.75 9.07L375.75 9.07Q376.08 7.91 376.52 6.81L376.52 6.81L376.52 6.81Q376.95 5.71 377.43 4.84L377.43 4.84L377.43 4.84Q377.66 4.86 377.99 4.94L377.99 4.94L377.99 4.94Q378.31 5.03 378.62 5.16L378.62 5.16L378.62 5.16Q378.92 5.29 379.18 5.45L379.18 5.45L379.18 5.45Q379.44 5.61 379.57 5.75ZM398.71 10.72L398.71 10.72L398.71 10.72Q399.07 10.72 399.28 10.98L399.28 10.98L399.28 10.98Q399.49 11.23 399.49 11.68L399.49 11.68L399.49 11.68Q399.49 11.79 399.48 11.91L399.48 11.91L399.48 11.91Q399.46 12.03 399.43 12.11L399.43 12.11L399.43 12.11Q399.14 12.04 398.79 12.03L398.79 12.03L398.79 12.03Q398.71 12.64 398.34 13.32L398.34 13.32L398.34 13.32Q397.98 14 397.46 14.60L397.46 14.60L397.46 14.60Q396.94 15.19 396.33 15.64L396.33 15.64L396.33 15.64Q395.71 16.09 395.11 16.24L395.11 16.24L395.11 16.24Q393.23 16.20 392.37 15.27L392.37 15.27L392.37 15.27Q391.51 14.34 391.51 12.36L391.51 12.36L391.51 12.36Q391.51 10.92 392.04 9.57L392.04 9.57L392.04 9.57Q392.57 8.22 393.46 7.17L393.46 7.17L393.46 7.17Q394.34 6.12 395.48 5.48L395.48 5.48L395.48 5.48Q396.62 4.84 397.85 4.84L397.85 4.84L397.85 4.84Q398.82 4.84 399.36 5.25L399.36 5.25L399.36 5.25Q399.90 5.66 399.90 6.40L399.90 6.40L399.90 6.40Q399.90 6.89 399.66 7.31L399.66 7.31L399.66 7.31Q399.43 7.73 398.90 8.22L398.90 8.22L398.90 8.22Q398.58 8.12 398.34 7.88L398.34 7.88L398.34 7.88Q398.10 7.63 398.05 7.31L398.05 7.31L398.05 7.31Q398.52 6.96 398.72 6.66L398.72 6.66L398.72 6.66Q398.92 6.37 398.92 5.96L398.92 5.96L398.92 5.96Q398.92 5.32 398.15 5.32L398.15 5.32L398.15 5.32Q397.52 5.32 396.79 5.79L396.79 5.79L396.79 5.79Q396.07 6.26 395.35 7.14L395.35 7.14L395.35 7.14Q394.31 8.39 393.83 9.71L393.83 9.71L393.83 9.71Q393.36 11.03 393.36 12.68L393.36 12.68L393.36 12.68Q393.36 13.30 393.48 13.80L393.48 13.80L393.48 13.80Q393.61 14.31 393.82 14.69L393.82 14.69L393.82 14.69Q394.03 15.06 394.32 15.29L394.32 15.29L394.32 15.29Q394.60 15.51 394.94 15.54L394.94 15.54L394.94 15.54Q395.39 15.44 395.84 15.09L395.84 15.09L395.84 15.09Q396.28 14.73 396.65 14.25L396.65 14.25L396.65 14.25Q397.03 13.76 397.28 13.21L397.28 13.21L397.28 13.21Q397.54 12.66 397.60 12.15L397.60 12.15L397.60 12.15Q397.21 12.24 396.85 12.31L396.85 12.31L396.85 12.31Q396.49 12.39 396.17 12.39L396.17 12.39L396.17 12.39Q395.75 12.39 395.44 12.18L395.44 12.18L395.44 12.18Q395.12 11.97 395.01 11.61L395.01 11.61L395.01 11.61Q395.26 11.47 395.74 11.31L395.74 11.31L395.74 11.31Q396.23 11.16 396.77 11.03L396.77 11.03L396.77 11.03Q397.32 10.89 397.84 10.81L397.84 10.81L397.84 10.81Q398.37 10.72 398.71 10.72ZM412.51 14.36L412.51 14.36L412.51 14.36Q412.51 13.78 412.71 12.85L412.71 12.85L412.71 12.85Q412.90 11.93 413.22 10.88L413.22 10.88L413.22 10.88Q412.30 10.95 411.37 11.06L411.37 11.06L411.37 11.06Q410.44 11.17 409.75 11.19L409.75 11.19L409.75 11.19Q409.12 12.66 408.75 13.89L408.75 13.89L408.75 13.89Q408.38 15.13 408.17 16.31L408.17 16.31L408.17 16.31Q407.64 16.18 407.29 15.87L407.29 15.87L407.29 15.87Q406.94 15.55 406.64 15.08L406.64 15.08L406.64 15.08Q406.76 14.85 406.90 14.50L406.90 14.50L406.90 14.50Q407.05 14.15 407.25 13.66L407.25 13.66L407.25 13.66Q407.46 13.16 407.71 12.50L407.71 12.50L407.71 12.50Q407.97 11.83 408.31 10.95L408.31 10.95L408.31 10.95Q407.85 10.75 407.69 10.40L407.69 10.40L407.69 10.40Q407.76 10.35 408.01 10.28L408.01 10.28L408.01 10.28Q408.25 10.22 408.62 10.15L408.62 10.15L408.80 9.70L408.80 9.70Q409.09 8.95 409.28 8.43L409.28 8.43L409.28 8.43Q409.47 7.91 409.60 7.41L409.60 7.41L409.60 7.41Q409.74 6.92 409.86 6.31L409.86 6.31L409.86 6.31Q409.98 5.71 410.14 4.79L410.14 4.79L410.14 4.79Q410.73 4.90 411.21 5.31L411.21 5.31L411.21 5.31Q411.70 5.71 412.05 6.29L412.05 6.29L412.05 6.29Q411.92 6.45 411.74 6.79L411.74 6.79L411.74 6.79Q411.56 7.13 411.34 7.59L411.34 7.59L411.34 7.59Q411.12 8.06 410.87 8.64L410.87 8.64L410.87 8.64Q410.62 9.23 410.33 9.87L410.33 9.87L410.33 9.87Q411.19 9.76 412.08 9.66L412.08 9.66L412.08 9.66Q412.97 9.56 413.66 9.52L413.66 9.52L413.66 9.52Q413.91 8.79 414.18 8.10L414.18 8.10L414.18 8.10Q414.46 7.41 414.72 6.83L414.72 6.83L414.72 6.83Q414.99 6.26 415.23 5.82L415.23 5.82L415.23 5.82Q415.48 5.39 415.67 5.18L415.67 5.18L415.67 5.18Q415.81 5.19 416.04 5.29L416.04 5.29L416.04 5.29Q416.28 5.38 416.51 5.50L416.51 5.50L416.51 5.50Q416.75 5.63 416.95 5.78L416.95 5.78L416.95 5.78Q417.14 5.92 417.21 6.05L417.21 6.05L417.21 6.05Q416.96 6.29 416.71 6.66L416.71 6.66L416.71 6.66Q416.46 7.04 416.21 7.53L416.21 7.53L416.21 7.53Q415.97 8.02 415.73 8.60L415.73 8.60L415.73 8.60Q415.49 9.17 415.28 9.79L415.28 9.79L415.28 9.79Q415.56 10.04 415.56 10.42L415.56 10.42L415.56 10.42Q415.56 10.68 415.45 10.91L415.45 10.91L415.45 10.91Q415.32 10.88 415.20 10.87L415.20 10.87L415.20 10.87Q415.07 10.86 414.93 10.85L414.93 10.85L414.93 10.85Q414.69 11.61 414.50 12.35L414.50 12.35L414.50 12.35Q414.30 13.09 414.17 13.76L414.17 13.76L414.17 13.76Q414.04 14.43 413.96 14.99L413.96 14.99L413.96 14.99Q413.88 15.55 413.88 15.93L413.88 15.93L413.88 15.93Q413.88 16.07 413.89 16.16L413.89 16.16L413.89 16.16Q413.90 16.24 413.91 16.30L413.91 16.30L413.91 16.30Q413.60 16.28 413.46 16.19L413.46 16.19L413.46 16.19Q413.32 16.10 413.25 16.00L413.25 16.00L413.25 16.00Q413.18 15.89 413.13 15.79L413.13 15.79L413.13 15.79Q413.07 15.68 412.94 15.62L412.94 15.62L412.94 15.62Q412.85 15.58 412.76 15.43L412.76 15.43L412.76 15.43Q412.68 15.27 412.62 15.08L412.62 15.08L412.62 15.08Q412.57 14.88 412.54 14.69L412.54 14.69L412.54 14.69Q412.51 14.49 412.51 14.36ZM434.46 16.24L434.46 16.24L434.46 16.24Q433.79 16.04 433.53 15.85L433.53 15.85L433.53 15.85Q433.27 15.65 433.27 15.36L433.27 15.36L433.27 15.36Q433.27 15.13 433.40 14.73L433.40 14.73L433.40 14.73Q433.52 14.32 433.77 13.77L433.77 13.77L433.77 13.77Q434.01 13.22 434.36 12.54L434.36 12.54L434.36 12.54Q434.70 11.87 435.13 11.10L435.13 11.10L435.13 11.10Q434.77 11.09 434.48 11.08L434.48 11.08L434.48 11.08Q434.20 11.07 434.01 11.07L434.01 11.07L434.01 11.07Q434.10 10.86 434.49 10.71L434.49 10.71L434.49 10.71Q434.88 10.56 435.53 10.44L435.53 10.44L435.53 10.44Q436.07 9.53 436.69 8.71L436.69 8.71L436.69 8.71Q437.32 7.88 437.95 7.19L437.95 7.19L437.95 7.19Q438.58 6.50 439.21 5.97L439.21 5.97L439.21 5.97Q439.84 5.45 440.41 5.14L440.41 5.14L440.41 5.14Q440.43 5.04 440.43 4.97L440.43 4.97L440.43 4.97Q440.44 4.90 440.44 4.87L440.44 4.87L440.44 4.87Q440.64 4.87 440.96 4.97L440.96 4.97L440.96 4.97Q441.29 5.07 441.61 5.21L441.61 5.21L441.61 5.21Q441.92 5.35 442.17 5.49L442.17 5.49L442.17 5.49Q442.41 5.64 442.44 5.74L442.44 5.74L442.44 5.74Q441.98 6.55 441.53 8.17L441.53 8.17L441.53 8.17Q441.08 9.79 440.79 12.04L440.79 12.04L440.79 12.04Q440.72 12.60 440.67 13.31L440.67 13.31L440.67 13.31Q440.62 14.03 440.62 14.91L440.62 14.91L440.62 14.91Q440.62 15.22 440.62 15.54L440.62 15.54L440.62 15.54Q440.62 15.86 440.65 16.21L440.65 16.21L440.65 16.21Q440.62 16.23 440.59 16.23L440.59 16.23L440.59 16.23Q440.57 16.23 440.48 16.23L440.48 16.23L440.48 16.23Q440.29 16.23 440.03 16.16L440.03 16.16L440.03 16.16Q439.77 16.10 439.52 16.01L439.52 16.01L439.52 16.01Q439.28 15.92 439.10 15.81L439.10 15.81L439.10 15.81Q438.93 15.69 438.89 15.61L438.89 15.61L438.89 15.61Q438.87 15.43 438.87 15.25L438.87 15.25L438.87 15.25Q438.87 15.08 438.87 14.88L438.87 14.88L438.87 14.88Q438.87 14.01 438.93 13.12L438.93 13.12L438.93 13.12Q439.00 12.22 439.15 11.27L439.15 11.27L439.15 11.27Q438.96 11.26 438.63 11.23L438.63 11.23L438.63 11.23Q438.31 11.21 437.91 11.20L437.91 11.20L437.91 11.20Q437.51 11.19 437.06 11.16L437.06 11.16L437.06 11.16Q436.60 11.14 436.17 11.13L436.17 11.13L436.17 11.13Q435.83 11.76 435.54 12.38L435.54 12.38L435.54 12.38Q435.25 13.01 435.04 13.64L435.04 13.64L435.04 13.64Q434.80 14.31 434.65 14.98L434.65 14.98L434.65 14.98Q434.50 15.65 434.46 16.24ZM439.87 7.83L439.87 7.83L439.87 7.83Q439.92 7.63 440.00 7.29L440.00 7.29L440.00 7.29Q440.08 6.94 440.15 6.57L440.15 6.57L440.15 6.57Q439.80 6.69 439.37 7.03L439.37 7.03L439.37 7.03Q438.94 7.36 438.49 7.86L438.49 7.86L438.49 7.86Q438.03 8.36 437.56 8.98L437.56 8.98L437.56 8.98Q437.09 9.60 436.66 10.30L436.66 10.30L436.66 10.30Q437.84 10.21 439.33 10.18L439.33 10.18L439.33 10.18Q439.45 9.59 439.58 9.01L439.58 9.01L439.58 9.01Q439.71 8.43 439.87 7.83ZM450.18 12.43L450.18 12.43L450.18 12.43Q450.18 11.45 450.41 10.51L450.41 10.51L450.41 10.51Q450.65 9.56 451.07 8.71L451.07 8.71L451.07 8.71Q451.49 7.87 452.07 7.16L452.07 7.16L452.07 7.16Q452.65 6.45 453.34 5.94L453.34 5.94L453.34 5.94Q454.03 5.42 454.82 5.13L454.82 5.13L454.82 5.13Q455.60 4.84 456.43 4.84L456.43 4.84L456.43 4.84Q457.39 4.84 457.93 5.25L457.93 5.25L457.93 5.25Q458.47 5.66 458.47 6.38L458.47 6.38L458.47 6.38Q458.47 6.66 458.39 6.96L458.39 6.96L458.39 6.96Q458.32 7.25 458.17 7.54L458.17 7.54L458.17 7.54Q458.02 7.83 457.83 8.09L457.83 8.09L457.83 8.09Q457.63 8.36 457.39 8.55L457.39 8.55L457.39 8.55Q457.03 8.50 456.76 8.22L456.76 8.22L456.76 8.22Q456.50 7.95 456.43 7.59L456.43 7.59L456.43 7.59Q456.92 7.18 457.20 6.74L457.20 6.74L457.20 6.74Q457.49 6.30 457.49 5.94L457.49 5.94L457.49 5.94Q457.49 5.32 456.72 5.32L456.72 5.32L456.72 5.32Q456.40 5.32 456.06 5.45L456.06 5.45L456.06 5.45Q455.71 5.59 455.36 5.82L455.36 5.82L455.36 5.82Q455.01 6.06 454.68 6.40L454.68 6.40L454.68 6.40Q454.36 6.73 454.08 7.14L454.08 7.14L454.08 7.14Q452.13 9.94 452.13 12.87L452.13 12.87L452.13 12.87Q452.13 13.90 452.45 14.53L452.45 14.53L452.45 14.53Q452.77 15.16 453.31 15.27L453.31 15.27L453.31 15.27Q453.91 15.13 454.83 14.50L454.83 14.50L454.83 14.50Q455.76 13.87 456.85 12.87L456.85 12.87L456.85 12.87Q456.99 13.01 457.02 13.16L457.02 13.16L457.02 13.16Q456.61 13.69 456.18 14.18L456.18 14.18L456.18 14.18Q455.74 14.67 455.31 15.08L455.31 15.08L455.31 15.08Q454.89 15.48 454.47 15.79L454.47 15.79L454.47 15.79Q454.06 16.10 453.71 16.27L453.71 16.27L453.71 16.27Q451.98 16.24 451.08 15.27L451.08 15.27L451.08 15.27Q450.18 14.31 450.18 12.43ZM467.67 6.69L467.67 6.69L467.67 6.69Q467.11 6.69 466.81 6.38L466.81 6.38L466.81 6.38Q466.51 6.06 466.51 5.61L466.51 5.61L466.51 5.61Q466.51 5.50 466.54 5.35L466.54 5.35L466.54 5.35Q466.58 5.19 466.63 5.08L466.63 5.08L466.63 5.08Q466.82 5.17 467.17 5.20L467.17 5.20L467.17 5.20Q467.53 5.24 468.01 5.24L468.01 5.24L468.01 5.24Q468.72 5.24 469.62 5.17L469.62 5.17L469.62 5.17Q470.53 5.11 471.35 5.04L471.35 5.04L471.35 5.04Q472.18 4.97 472.81 4.91L472.81 4.91L472.81 4.91Q473.44 4.84 473.62 4.84L473.62 4.84L473.62 4.84Q474.14 4.84 474.37 5.23L474.37 5.23L474.37 5.23Q474.60 5.61 474.71 6.26L474.71 6.26L474.71 6.26Q474.35 6.23 473.99 6.21L473.99 6.21L473.99 6.21Q473.63 6.19 473.38 6.19L473.38 6.19L473.38 6.19Q472.93 6.19 472.48 6.22L472.48 6.22L472.48 6.22Q472.02 6.24 471.56 6.30L471.56 6.30L471.56 6.30Q471.37 6.71 471.13 7.26L471.13 7.26L471.13 7.26Q470.89 7.81 470.66 8.41L470.66 8.41L470.66 8.41Q470.43 9.02 470.22 9.61L470.22 9.61L470.22 9.61Q470.01 10.21 469.85 10.68L469.85 10.68L469.85 10.68Q469.55 11.61 469.31 12.39L469.31 12.39L469.31 12.39Q469.08 13.17 468.91 13.85L468.91 13.85L468.91 13.85Q468.73 14.53 468.61 15.15L468.61 15.15L468.61 15.15Q468.48 15.76 468.38 16.35L468.38 16.35L468.38 16.35Q467.45 16.21 466.82 15.18L466.82 15.18L466.82 15.18Q466.93 14.74 467.09 14.23L467.09 14.23L467.09 14.23Q467.25 13.72 467.47 13.07L467.47 13.07L467.47 13.07Q467.68 12.42 467.98 11.59L467.98 11.59L467.98 11.59Q468.27 10.77 468.65 9.72L468.65 9.72L468.65 9.72Q468.79 9.32 468.94 8.90L468.94 8.90L468.94 8.90Q469.10 8.47 469.25 8.05L469.25 8.05L469.25 8.05Q469.39 7.63 469.51 7.24L469.51 7.24L469.51 7.24Q469.63 6.85 469.71 6.52L469.71 6.52L469.71 6.52Q469.13 6.59 468.60 6.64L468.60 6.64L468.60 6.64Q468.08 6.69 467.67 6.69ZM480.55 14.38L480.55 14.38L480.55 14.38Q480.55 13.87 480.71 13.07L480.71 13.07L480.71 13.07Q480.87 12.26 481.13 11.33L481.13 11.33L481.13 11.33Q481.39 10.40 481.73 9.43L481.73 9.43L481.73 9.43Q482.06 8.46 482.41 7.60L482.41 7.60L482.41 7.60Q482.76 6.75 483.10 6.10L483.10 6.10L483.10 6.10Q483.43 5.46 483.70 5.18L483.70 5.18L483.70 5.18Q483.84 5.19 484.07 5.29L484.07 5.29L484.07 5.29Q484.30 5.38 484.54 5.50L484.54 5.50L484.54 5.50Q484.78 5.63 484.97 5.78L484.97 5.78L484.97 5.78Q485.17 5.92 485.23 6.05L485.23 6.05L485.23 6.05Q484.82 6.41 484.42 7.15L484.42 7.15L484.42 7.15Q484.02 7.88 483.65 8.82L483.65 8.82L483.65 8.82Q483.28 9.76 482.96 10.80L482.96 10.80L482.96 10.80Q482.64 11.84 482.40 12.82L482.40 12.82L482.40 12.82Q482.16 13.80 482.03 14.64L482.03 14.64L482.03 14.64Q481.89 15.48 481.89 16.00L481.89 16.00L481.89 16.00Q481.89 16.24 481.94 16.30L481.94 16.30L481.94 16.30Q481.63 16.28 481.49 16.19L481.49 16.19L481.49 16.19Q481.35 16.10 481.27 16.00L481.27 16.00L481.27 16.00Q481.19 15.89 481.13 15.79L481.13 15.79L481.13 15.79Q481.07 15.68 480.94 15.62L480.94 15.62L480.94 15.62Q480.84 15.58 480.77 15.43L480.77 15.43L480.77 15.43Q480.70 15.27 480.66 15.09L480.66 15.09L480.66 15.09Q480.61 14.90 480.58 14.70L480.58 14.70L480.58 14.70Q480.55 14.50 480.55 14.38ZM497.99 4.98L497.99 4.98L497.99 4.98Q498.26 5.10 498.54 5.27L498.54 5.27L498.54 5.27Q498.82 5.45 499.06 5.63L499.06 5.63L499.06 5.63Q499.30 5.81 499.46 5.98L499.46 5.98L499.46 5.98Q499.62 6.16 499.63 6.27L499.63 6.27L499.63 6.27Q499.39 6.22 499.16 6.20L499.16 6.20L499.16 6.20Q498.92 6.17 498.72 6.17L498.72 6.17L498.72 6.17Q498.09 6.17 497.47 6.48L497.47 6.48L497.47 6.48Q496.85 6.79 496.29 7.32L496.29 7.32L496.29 7.32Q495.73 7.85 495.25 8.57L495.25 8.57L495.25 8.57Q494.77 9.28 494.43 10.09L494.43 10.09L494.43 10.09Q494.09 10.91 493.89 11.77L493.89 11.77L493.89 11.77Q493.70 12.64 493.70 13.48L493.70 13.48L493.70 13.48Q493.70 14.57 494.06 15.11L494.06 15.11L494.06 15.11Q494.42 15.64 495.12 15.64L495.12 15.64L495.12 15.64Q495.46 15.64 495.85 15.51L495.85 15.51L495.85 15.51Q496.24 15.37 496.65 15.13L496.65 15.13L496.65 15.13Q497.06 14.90 497.45 14.56L497.45 14.56L497.45 14.56Q497.84 14.22 498.18 13.82L498.18 13.82L498.18 13.82Q498.67 13.23 499.06 12.48L499.06 12.48L499.06 12.48Q499.45 11.73 499.72 10.89L499.72 10.89L499.72 10.89Q500.00 10.05 500.14 9.16L500.14 9.16L500.14 9.16Q500.29 8.27 500.29 7.42L500.29 7.42L500.29 7.42Q500.29 7.08 500.28 6.85L500.28 6.85L500.28 6.85Q500.26 6.62 500.24 6.46L500.24 6.46L500.24 6.46Q500.22 6.30 500.21 6.20L500.21 6.20L500.21 6.20Q500.19 6.10 500.18 6.03L500.18 6.03L500.18 6.03Q500.35 6.12 500.55 6.24L500.55 6.24L500.55 6.24Q500.75 6.36 500.93 6.59L500.93 6.59L500.93 6.59Q501.10 6.82 501.22 7.20L501.22 7.20L501.22 7.20Q501.34 7.57 501.34 8.18L501.34 8.18L501.34 8.18Q501.34 9.16 501.11 10.10L501.11 10.10L501.11 10.10Q500.88 11.05 500.47 11.90L500.47 11.90L500.47 11.90Q500.05 12.75 499.49 13.50L499.49 13.50L499.49 13.50Q498.93 14.24 498.29 14.80L498.29 14.80L498.29 14.80Q497.45 15.54 496.50 15.95L496.50 15.95L496.50 15.95Q495.54 16.35 494.66 16.35L494.66 16.35L494.66 16.35Q493.37 16.35 492.70 15.53L492.70 15.53L492.70 15.53Q492.02 14.71 492.02 13.12L492.02 13.12L492.02 13.12Q492.02 12.26 492.21 11.31L492.21 11.31L492.21 11.31Q492.39 10.36 492.74 9.44L492.74 9.44L492.74 9.44Q493.08 8.51 493.56 7.68L493.56 7.68L493.56 7.68Q494.03 6.85 494.60 6.21L494.60 6.21L494.60 6.21Q495.17 5.57 495.82 5.19L495.82 5.19L495.82 5.19Q496.47 4.82 497.15 4.82L497.15 4.82L497.15 4.82Q497.38 4.82 497.57 4.85L497.57 4.85L497.57 4.85Q497.77 4.89 497.99 4.98ZM509.91 16.24L509.91 16.24L509.91 16.24Q509.11 16.00 508.83 15.79L508.83 15.79L508.83 15.79Q508.55 15.57 508.55 15.19L508.55 15.19L508.55 15.19Q508.55 14.77 508.75 14.01L508.75 14.01L508.75 14.01Q508.94 13.24 509.26 12.31L509.26 12.31L509.26 12.31Q509.57 11.37 509.98 10.35L509.98 10.35L509.98 10.35Q510.38 9.32 510.80 8.39L510.80 8.39L510.80 8.39Q511.22 7.45 511.62 6.67L511.62 6.67L511.62 6.67Q512.02 5.89 512.33 5.46L512.33 5.46L512.23 4.87L512.23 4.87Q512.43 4.87 512.78 4.97L512.78 4.97L512.78 4.97Q513.13 5.07 513.49 5.21L513.49 5.21L513.49 5.21Q513.84 5.35 514.12 5.49L514.12 5.49L514.12 5.49Q514.39 5.64 514.42 5.74L514.42 5.74L514.42 5.74Q514.35 6.08 514.30 6.76L514.30 6.76L514.30 6.76Q514.26 7.43 514.26 8.20L514.26 8.20L514.26 8.20Q514.26 9.73 514.38 11.19L514.38 11.19L514.38 11.19Q514.50 12.66 514.93 14.17L514.93 14.17L514.93 14.17Q515.16 13.05 515.42 11.94L515.42 11.94L515.42 11.94Q515.68 10.82 515.96 9.81L515.96 9.81L515.96 9.81Q516.24 8.79 516.52 7.92L516.52 7.92L516.52 7.92Q516.80 7.06 517.06 6.40L517.06 6.40L517.06 6.40Q517.31 5.75 517.54 5.38L517.54 5.38L517.54 5.38Q517.76 5.01 517.94 4.98L517.94 4.98L517.94 4.98Q518.10 5.01 518.28 5.10L518.28 5.10L518.28 5.10Q518.46 5.19 518.63 5.32L518.63 5.32L518.63 5.32Q518.80 5.45 518.94 5.60L518.94 5.60L518.94 5.60Q519.08 5.75 519.16 5.91L519.16 5.91L519.16 5.91Q518.71 6.09 518.27 6.76L518.27 6.76L518.27 6.76Q517.83 7.43 517.43 8.39L517.43 8.39L517.43 8.39Q517.03 9.35 516.69 10.47L516.69 10.47L516.69 10.47Q516.35 11.59 516.09 12.68L516.09 12.68L516.09 12.68Q515.83 13.76 515.68 14.69L515.68 14.69L515.68 14.69Q515.54 15.61 515.52 16.17L515.52 16.17L515.52 16.17Q515.52 16.20 515.54 16.21L515.54 16.21L515.54 16.21Q515.49 16.23 515.45 16.23L515.45 16.23L515.45 16.23Q515.40 16.23 515.35 16.23L515.35 16.23L515.35 16.23Q514.71 16.23 514.21 16.07L514.21 16.07L514.21 16.07Q513.72 15.90 513.56 15.61L513.56 15.61L513.56 15.61Q513.27 14.43 513.07 13.34L513.07 13.34L513.07 13.34Q512.88 12.25 512.74 11.16L512.74 11.16L512.74 11.16Q512.61 10.07 512.53 8.95L512.53 8.95L512.53 8.95Q512.46 7.84 512.41 6.62L512.41 6.62L512.41 6.62Q512.15 7.04 511.85 7.72L511.85 7.72L511.85 7.72Q511.56 8.40 511.28 9.21L511.28 9.21L511.28 9.21Q511.00 10.02 510.74 10.92L510.74 10.92L510.74 10.92Q510.48 11.82 510.29 12.67L510.29 12.67L510.29 12.67Q510.09 13.52 509.98 14.29L509.98 14.29L509.98 14.29Q509.87 15.05 509.87 15.61L509.87 15.61L509.87 15.61Q509.87 15.90 509.87 16.03L509.87 16.03L509.87 16.03Q509.88 16.16 509.91 16.24Z"></path></g></svg>